<?xml version="1.0" encoding="UTF-8"?>
<svg width="700px" height="700px" viewBox="0 0 700 700" xmlns="http://www.w3.org/2000/svg" xmlns:xlink="http://www.w3.org/1999/xlink" version="1.1">
 <!-- Generated by Pixelmator Pro 2.3 -->
 <g id="group">
  <path id="Path" d="M532.981 352.007 C532.499 361.261 528.807 370.054 522.534 376.876 L236.042 687.243 236.047 687.249 C228.858 694.998 218.883 699.573 208.319 699.972 197.755 700.366 187.463 696.553 179.714 689.364 171.964 682.175 167.384 672.2 166.99 661.636 166.596 651.071 170.41 640.78 177.604 633.03 L438.972 349.778 177.59 66.525 C170.401 58.776 166.582 48.485 166.982 37.92 167.376 27.356 171.95 17.381 179.705 10.192 187.454 3.003 197.74 -0.811 208.304 -0.416 218.868 -0.017 228.844 4.557 236.033 12.307 L522.526 322.674 522.526 322.679 C529.847 330.634 533.622 341.232 532.967 352.022 Z" fill="#000000" fill-opacity="1" stroke="none"/>
 </g>
</svg>
