<?xml version="1.0" encoding="UTF-8"?>
<svg width="700px" height="700px" viewBox="0 0 700 700" xmlns="http://www.w3.org/2000/svg" xmlns:xlink="http://www.w3.org/1999/xlink" version="1.1">
 <!-- Generated by Pixelmator Pro 2.3 -->
 <g id="group">
  <path id="Path" d="M350.003 0.001 C270.857 -0.406 194.788 30.637 138.517 86.313 82.255 141.989 50.414 217.73 49.995 296.87 49.995 506.614 285.624 700 349.996 700 414.367 700 649.996 506.628 649.996 296.87 649.578 217.725 617.736 141.984 561.475 86.313 505.213 30.637 429.142 -0.406 349.989 0.001 Z M275.003 50.001 C280.059 50.001 284.618 53.048 286.548 57.719 288.485 62.39 287.419 67.763 283.842 71.341 280.265 74.918 274.891 75.984 270.22 74.047 265.55 72.116 262.503 67.557 262.503 62.501 262.503 55.598 268.1 50.001 275.003 50.001 Z M112.502 304.502 C112.502 311.41 106.905 317.002 100.002 317.002 93.099 317.002 87.502 311.41 87.502 304.502 87.458 255.775 100.655 207.945 125.688 166.132 150.721 124.323 186.648 90.104 229.628 67.13 235.772 63.921 243.356 66.298 246.564 72.443 249.772 78.587 247.395 86.17 241.251 89.378 202.294 110.187 169.738 141.197 147.054 179.094 124.375 216.99 112.434 260.339 112.5 304.502 Z M506.246 268.755 C506.263 273.37 504.092 277.717 500.398 280.473 496.698 283.236 491.916 284.084 487.496 282.756 L487.496 381.255 C487.507 390.289 485.057 399.162 480.409 406.913 475.766 414.664 469.098 421.004 461.123 425.256 L461.123 448.382 C460.861 456.284 456.492 463.476 449.594 467.355 442.702 471.233 434.287 471.233 427.396 467.355 420.504 463.477 416.134 456.283 415.872 448.382 L415.872 431.256 284.119 431.256 284.119 448.382 C283.857 456.284 279.487 463.476 272.596 467.355 265.704 471.233 257.288 471.233 250.397 467.355 243.5 463.477 239.13 456.283 238.868 448.382 L238.868 425.256 C230.894 421.004 224.225 414.665 219.582 406.913 214.934 399.162 212.484 390.289 212.495 381.255 L212.495 282.756 C208.075 284.084 203.293 283.236 199.593 280.473 195.899 277.717 193.728 273.37 193.745 268.755 L193.745 231.255 C193.717 226.589 195.927 222.192 199.682 219.424 203.444 216.651 208.293 215.847 212.746 217.254 214.041 197.342 222.863 178.671 237.418 165.026 251.972 151.377 271.168 143.771 291.123 143.753 L408.875 143.753 408.87 143.753 C428.825 143.77 448.021 151.376 462.575 165.026 477.13 178.67 485.951 197.342 487.247 217.254 491.7 215.847 496.549 216.651 500.31 219.424 504.066 222.192 506.276 226.589 506.248 231.255 Z" fill="#000000" fill-opacity="1" stroke="none"/>
  <path id="Path-1" d="M275.003 362.502 C268.373 362.502 262.012 365.136 257.324 369.824 252.637 374.511 250.003 380.873 250.003 387.502 250.003 394.132 252.637 400.493 257.324 405.181 262.012 409.868 268.373 412.502 275.003 412.502 281.632 412.502 287.994 409.868 292.681 405.181 297.369 400.493 300.003 394.132 300.003 387.502 300.003 380.873 297.369 374.511 292.681 369.824 287.994 365.136 281.632 362.502 275.003 362.502 Z" fill="#000000" fill-opacity="1" stroke="none"/>
  <path id="Path-2" d="M425.003 362.502 C418.374 362.502 412.012 365.136 407.324 369.824 402.637 374.511 400.003 380.873 400.003 387.502 400.003 394.132 402.637 400.493 407.324 405.181 412.012 409.868 418.374 412.502 425.003 412.502 431.632 412.502 437.994 409.868 442.682 405.181 447.369 400.493 450.003 394.132 450.003 387.502 449.981 380.878 447.341 374.528 442.659 369.846 437.977 365.165 431.627 362.525 425.004 362.503 Z" fill="#000000" fill-opacity="1" stroke="none"/>
  <path id="Path-3" d="M443.746 206.259 L256.245 206.259 C249.343 206.259 243.745 211.856 243.745 218.759 L243.745 331.259 C243.745 334.574 245.062 337.755 247.406 340.098 249.75 342.442 252.931 343.759 256.245 343.759 L443.746 343.759 C447.061 343.759 450.242 342.442 452.585 340.098 454.929 337.755 456.246 334.574 456.246 331.259 L456.246 218.759 C456.246 215.444 454.929 212.263 452.585 209.92 450.241 207.576 447.061 206.259 443.746 206.259 Z" fill="#000000" fill-opacity="1" stroke="none"/>
  <path id="Path-4" d="M381.26 163.002 L318.76 163.002 C311.857 163.002 306.26 168.593 306.26 175.502 306.26 182.404 311.857 188.002 318.76 188.002 L381.26 188.002 C388.163 188.002 393.76 182.404 393.76 175.502 393.76 168.593 388.163 163.002 381.26 163.002 Z" fill="#000000" fill-opacity="1" stroke="none"/>
 </g>
</svg>
