<svg xmlns="http://www.w3.org/2000/svg" width="45" height="45"><path d="M 22.525 0.241 C 17.486 0.215 12.643 2.192 9.06 5.736 C 5.479 9.281 3.451 14.103 3.425 19.142 C 3.425 32.495 18.426 44.807 22.524 44.807 C 26.623 44.807 41.624 32.496 41.624 19.142 C 41.597 14.103 39.57 9.281 35.988 5.736 C 32.406 2.192 27.563 0.215 22.524 0.241 Z M 17.75 3.425 C 18.072 3.425 18.362 3.619 18.485 3.916 C 18.609 4.213 18.541 4.556 18.313 4.783 C 18.085 5.011 17.743 5.079 17.445 4.955 C 17.148 4.832 16.954 4.542 16.954 4.22 C 16.954 3.781 17.31 3.425 17.75 3.425 Z M 7.404 19.627 C 7.404 20.067 7.048 20.423 6.608 20.423 C 6.169 20.423 5.813 20.067 5.813 19.627 C 5.81 16.525 6.65 13.48 8.244 10.818 C 9.838 8.156 12.125 5.978 14.861 4.515 C 15.252 4.311 15.735 4.462 15.939 4.853 C 16.144 5.244 15.992 5.727 15.601 5.932 C 13.121 7.256 11.048 9.231 9.604 11.643 C 8.16 14.056 7.4 16.816 7.404 19.627 Z M 32.472 17.352 C 32.473 17.645 32.335 17.922 32.1 18.098 C 31.864 18.274 31.56 18.327 31.278 18.243 L 31.278 24.514 C 31.279 25.089 31.123 25.654 30.827 26.147 C 30.532 26.641 30.107 27.045 29.599 27.315 L 29.599 28.788 C 29.583 29.291 29.304 29.749 28.865 29.995 C 28.427 30.242 27.891 30.242 27.452 29.995 C 27.013 29.749 26.735 29.291 26.718 28.788 L 26.718 27.697 L 18.33 27.697 L 18.33 28.788 C 18.313 29.291 18.035 29.749 17.596 29.995 C 17.158 30.242 16.622 30.242 16.183 29.995 C 15.744 29.749 15.466 29.291 15.449 28.788 L 15.449 27.315 C 14.942 27.045 14.517 26.641 14.221 26.147 C 13.926 25.654 13.77 25.089 13.77 24.514 L 13.77 18.243 C 13.489 18.327 13.184 18.273 12.949 18.098 C 12.714 17.922 12.575 17.645 12.577 17.352 L 12.577 14.964 C 12.575 14.667 12.715 14.387 12.955 14.211 C 13.194 14.034 13.503 13.983 13.786 14.073 C 13.869 12.805 14.43 11.616 15.357 10.748 C 16.284 9.879 17.506 9.394 18.776 9.393 L 26.273 9.393 L 26.273 9.393 C 27.543 9.394 28.765 9.879 29.692 10.748 C 30.618 11.616 31.18 12.805 31.262 14.073 C 31.546 13.983 31.855 14.035 32.094 14.211 C 32.333 14.387 32.474 14.667 32.472 14.964 Z" fill="#f66667"></path><path d="M 17.749 23.32 C 17.327 23.32 16.922 23.488 16.624 23.786 C 16.002 24.408 16.002 25.416 16.624 26.037 C 17.246 26.659 18.253 26.659 18.875 26.037 C 19.496 25.416 19.496 24.408 18.875 23.786 C 18.576 23.488 18.172 23.32 17.749 23.32 Z M 27.299 23.32 C 26.877 23.32 26.472 23.488 26.174 23.786 C 25.552 24.408 25.552 25.416 26.174 26.037 C 26.795 26.659 27.803 26.659 28.425 26.037 C 28.723 25.739 28.891 25.334 28.891 24.912 C 28.889 24.49 28.721 24.086 28.423 23.788 C 28.125 23.49 27.721 23.321 27.299 23.32 Z M 28.493 13.373 L 16.555 13.373 C 16.116 13.373 15.759 13.729 15.759 14.169 L 15.759 21.331 C 15.76 21.77 16.116 22.127 16.555 22.127 L 28.493 22.127 C 28.932 22.127 29.288 21.77 29.288 21.331 L 29.288 14.169 C 29.288 13.729 28.932 13.373 28.493 13.373 Z M 24.514 10.619 L 20.535 10.619 C 20.096 10.619 19.739 10.975 19.739 11.415 C 19.739 11.854 20.096 12.21 20.535 12.21 L 24.514 12.21 C 24.954 12.21 25.31 11.854 25.31 11.415 C 25.31 10.975 24.954 10.619 24.514 10.619 Z" fill="#f66667"></path></svg>