<svg xmlns="http://www.w3.org/2000/svg" width="136" height="125"><path d="M 78.49 89.615 C 78.14 89.984 77.79 90.354 77.44 90.726 C 77.44 90.726 77.439 90.727 77.439 90.728 C 75.155 93.15 72.535 95.967 70.352 98.487 C 69.523 99.444 68.163 99.74 67.012 99.213 C 66.042 98.77 66.485 98.702 57.903 89.614 C 45.135 91.129 39.586 94.933 39.586 96.614 C 39.586 98.885 49.32 104.205 68.196 104.205 C 87.072 104.205 96.808 98.886 96.808 96.614 C 96.808 94.934 91.26 91.129 78.49 89.615 Z" fill="rgb(0,0,0)"></path><path d="M 68.198 97.308 C 83.432 80.388 107.297 59.517 107.297 38.934 C 107.297 17.467 89.757 0.002 68.198 0.002 C 46.639 0.002 29.099 17.468 29.099 38.936 C 29.099 59.484 52.859 80.292 68.198 97.31 Z M 34.596 38.93 C 34.596 20.465 49.67 5.443 68.198 5.443 C 86.725 5.443 101.798 20.465 101.798 38.93 C 101.798 57.397 86.724 72.421 68.198 72.421 C 49.669 72.421 34.596 57.398 34.596 38.93 Z" fill="rgb(0,0,0)"></path><path d="M 88.464 58.916 L 80.862 58.916 C 81.478 58.453 81.877 57.717 81.877 56.889 L 81.877 53.339 L 76.81 53.339 L 76.81 56.889 C 76.81 57.717 77.21 58.453 77.826 58.916 L 58.57 58.916 C 59.186 58.453 59.584 57.717 59.584 56.889 L 59.585 53.339 L 54.519 53.339 L 54.519 56.889 C 54.519 57.717 54.918 58.453 55.534 58.916 L 47.932 58.916 C 47.652 58.917 47.425 59.144 47.425 59.424 C 47.426 59.704 47.653 59.93 47.932 59.93 L 88.465 59.93 C 88.741 59.925 88.962 59.7 88.962 59.423 C 88.962 59.147 88.741 58.922 88.465 58.916 Z M 79.343 41.169 C 78.505 41.169 77.823 41.851 77.823 42.691 C 77.823 43.53 78.505 44.212 79.343 44.212 C 80.182 44.212 80.863 43.529 80.863 42.691 C 80.864 41.851 80.182 41.169 79.343 41.169 Z M 66.678 28.493 C 66.678 28.213 66.906 27.986 67.186 27.986 C 67.466 27.986 67.692 28.213 67.692 28.493 L 67.692 35.085 L 79.851 35.085 L 79.851 24.945 L 55.533 24.945 L 55.533 35.085 L 66.679 35.085 Z M 57.052 41.169 C 56.214 41.169 55.533 41.851 55.533 42.691 C 55.533 43.53 56.214 44.212 57.052 44.212 C 57.891 44.212 58.572 43.529 58.572 42.691 C 58.572 41.851 57.89 41.169 57.052 41.169 Z" fill="rgb(0,0,0)"></path><path d="M 84.918 37.465 C 84.919 37.048 84.754 36.647 84.458 36.353 L 83.648 35.544 C 83.162 35.059 82.89 34.401 82.892 33.714 L 82.892 24.586 C 82.892 20.308 79.414 16.828 75.141 16.828 L 60.244 16.828 C 55.971 16.828 52.493 20.308 52.493 24.586 L 52.493 33.715 C 52.494 34.401 52.222 35.059 51.737 35.544 L 50.926 36.353 C 50.631 36.647 50.465 37.048 50.467 37.465 L 50.466 48.267 L 84.918 48.267 Z M 61.105 19.871 L 74.278 19.871 C 74.554 19.876 74.775 20.102 74.775 20.378 C 74.775 20.655 74.554 20.88 74.278 20.886 L 61.105 20.886 C 60.825 20.886 60.598 20.658 60.598 20.378 C 60.598 20.098 60.825 19.871 61.105 19.871 Z M 54.519 24.435 C 54.52 24.155 54.746 23.928 55.026 23.927 L 80.359 23.927 C 80.493 23.927 80.622 23.981 80.717 24.076 C 80.812 24.171 80.866 24.3 80.865 24.435 L 80.865 35.59 C 80.866 35.724 80.812 35.853 80.717 35.949 C 80.622 36.044 80.493 36.097 80.359 36.097 L 55.026 36.097 C 54.746 36.097 54.519 35.87 54.519 35.59 Z M 57.053 45.225 C 55.656 45.225 54.52 44.087 54.52 42.689 C 54.52 41.29 55.656 40.154 57.053 40.154 C 58.45 40.154 59.586 41.29 59.586 42.689 C 59.585 44.087 58.449 45.225 57.053 45.225 Z M 62.625 44.717 C 62.625 44.997 62.399 45.225 62.119 45.225 C 61.839 45.225 61.613 44.997 61.613 44.717 L 61.613 39.647 C 61.613 39.367 61.84 39.14 62.119 39.14 C 62.399 39.14 62.625 39.367 62.625 39.647 Z M 65.665 44.717 C 65.665 44.997 65.438 45.224 65.158 45.225 C 64.879 45.224 64.653 44.997 64.652 44.717 L 64.652 39.647 C 64.652 39.367 64.879 39.14 65.159 39.14 C 65.439 39.14 65.666 39.367 65.666 39.647 Z M 68.705 44.717 C 68.705 44.997 68.478 45.224 68.198 45.225 C 67.919 45.224 67.692 44.997 67.692 44.717 L 67.692 39.647 C 67.692 39.367 67.919 39.14 68.199 39.14 C 68.478 39.14 68.705 39.367 68.705 39.647 Z M 71.745 44.717 C 71.745 44.997 71.518 45.224 71.238 45.225 C 70.958 45.224 70.731 44.997 70.731 44.717 L 70.731 39.647 C 70.731 39.367 70.958 39.14 71.238 39.14 C 71.518 39.14 71.745 39.367 71.745 39.647 Z M 74.785 44.717 C 74.785 44.997 74.559 45.224 74.279 45.225 C 73.999 45.224 73.772 44.997 73.772 44.717 L 73.772 39.647 C 73.769 39.463 73.864 39.292 74.023 39.2 C 74.181 39.107 74.377 39.107 74.535 39.2 C 74.693 39.292 74.789 39.463 74.785 39.647 Z M 79.344 45.225 C 77.948 45.225 76.811 44.087 76.811 42.689 C 76.811 41.29 77.949 40.154 79.344 40.154 C 80.742 40.154 81.878 41.29 81.878 42.689 C 81.878 44.087 80.742 45.225 79.344 45.225 Z M 60.092 52.323 L 86.438 52.323 L 86.438 49.281 L 48.947 49.281 L 48.947 52.323 Z" fill="rgb(0,0,0)"></path></svg>