<?xml version="1.0" encoding="UTF-8"?>
<svg width="700px" height="700px" viewBox="0 0 700 700" xmlns="http://www.w3.org/2000/svg" xmlns:xlink="http://www.w3.org/1999/xlink" version="1.1">
 <!-- Generated by Pixelmator Pro 2.3 -->
 <g id="group">
  <path id="Path" d="M130.578 494.659 C120.756 479.452 112.243 463.445 105.185 446.783 106.64 450.276 108.095 453.768 109.55 457.188 99.073 432.159 91.943 405.819 88.304 378.897 88.813 382.753 89.322 386.61 89.832 390.539 86.266 363.326 86.339 335.749 89.904 308.537 89.395 312.393 88.886 316.25 88.377 320.179 92.015 293.548 99.072 267.573 109.477 242.76 108.021 246.253 106.566 249.745 105.111 253.165 115.443 228.717 128.904 205.652 145.129 184.624 142.874 187.534 140.546 190.518 138.29 193.428 154.297 172.836 172.779 154.356 193.369 138.349 190.459 140.604 187.476 142.932 184.565 145.188 205.594 128.963 228.659 115.502 253.107 105.17 249.614 106.625 246.122 108.08 242.702 109.535 267.441 99.13 293.489 92.073 320.12 88.435 316.264 88.944 312.407 89.454 308.478 89.963 335.982 86.325 363.849 86.325 391.28 89.963 387.423 89.454 383.567 88.944 379.638 88.435 406.269 92.073 432.244 99.131 457.056 109.535 453.564 108.08 450.071 106.625 446.651 105.17 471.099 115.502 494.164 128.963 515.193 145.188 512.282 142.932 509.299 140.604 506.389 138.349 526.98 154.356 545.461 172.837 561.468 193.428 559.212 190.518 556.884 187.534 554.628 184.624 570.854 205.652 584.314 228.717 594.647 253.165 593.192 249.673 591.736 246.18 590.281 242.76 600.686 267.499 607.744 293.548 611.381 320.179 610.872 316.322 610.363 312.466 609.853 308.537 613.492 336.041 613.492 363.908 609.853 391.338 610.363 387.482 610.872 383.626 611.381 379.696 607.743 406.327 600.685 432.303 590.281 457.115 591.736 453.622 593.192 450.13 594.647 446.71 584.315 471.158 570.854 494.223 554.628 515.251 556.884 512.341 559.212 509.358 561.468 506.447 545.461 527.039 526.979 545.519 506.389 561.526 509.299 559.271 512.282 556.943 515.193 554.687 494.164 570.912 471.099 584.373 446.651 594.705 450.144 593.25 453.636 591.795 457.056 590.34 432.317 600.745 406.269 607.802 379.638 611.44 383.494 610.931 387.351 610.421 391.28 609.912 363.994 613.55 336.345 613.55 309.06 609.985 312.916 610.494 316.772 611.003 320.701 611.513 293.634 607.875 267.149 600.671 241.974 590.048 245.467 591.503 248.959 592.958 252.379 594.414 247.722 592.449 243.211 590.339 238.627 588.156 233.606 584.955 228.222 583.208 222.402 582.99 216.581 581.68 210.76 581.971 205.012 583.791 194.898 586.555 183.912 594.414 178.891 603.873 173.506 613.987 170.887 626.284 174.525 637.489 177.872 647.821 184.421 658.735 194.608 663.61 213.889 672.924 233.971 681 254.635 686.894 275.808 692.86 297.636 696.353 319.466 698.536 353.954 701.955 389.025 699.19 423.004 692.278 483.832 679.836 540.586 649.495 586.427 607.948 631.975 566.692 665.736 512.486 684.218 453.918 693.822 423.431 698.843 391.052 699.789 359.11 700.735 327.241 696.951 294.717 689.238 263.793 674.322 204.057 642.526 148.321 599.379 104.441 556.159 60.347 500.497 27.75 440.758 11.816 410.053 3.594 377.675 -0.48 345.879 -0.044 313.865 0.393 281.34 5.049 250.635 14.218 191.771 31.753 137.128 65.005 95.141 109.971 53.086 155.011 22.234 211.255 8.774 271.505 1.425 304.612 -1.777 339.101 0.77 372.934 2.371 394.252 5.5 415.645 10.666 436.309 15.686 456.245 23.035 475.308 31.184 494.154 37.951 509.652 45.955 524.496 55.122 538.684 61.234 548.143 70.112 555.71 81.244 558.766 91.721 561.677 105.618 560.367 114.86 554.401 124.173 548.362 132.396 539.412 134.942 528.28 137.562 517.147 136.979 504.56 130.577 494.664 Z" fill="#000000" fill-opacity="1" stroke="none"/>
  <path id="Path-1" d="M465.927 404.226 L295.745 234.044 C287.814 226.113 276.099 221.238 264.893 221.238 254.198 221.238 241.392 225.967 234.042 234.044 226.329 242.266 220.655 253.18 221.164 264.822 221.673 276.391 225.602 287.305 233.969 295.673 L404.152 465.856 C412.083 473.786 423.798 478.661 435.003 478.661 445.699 478.661 458.505 473.932 465.854 465.856 473.567 457.634 479.242 446.719 478.733 435.077 478.224 423.509 474.295 412.595 465.927 404.226 Z" fill="#000000" fill-opacity="1" stroke="none"/>
  <path id="Path-2" d="M404.232 233.964 L234.05 404.146 C226.119 412.077 221.244 423.792 221.244 434.998 221.244 445.694 225.974 458.499 234.05 465.849 242.272 473.562 253.187 479.236 264.828 478.728 276.397 478.218 287.311 474.289 295.68 465.922 L465.862 295.739 C473.793 287.809 478.668 276.093 478.668 264.888 478.668 254.192 473.938 241.386 465.862 234.037 457.64 226.324 446.725 220.65 435.084 221.158 423.515 221.668 412.601 225.597 404.232 233.964 Z" fill="#000000" fill-opacity="1" stroke="none"/>
 </g>
</svg>
