<svg xmlns="http://www.w3.org/2000/svg" width="25" height="25"><path d="M 13.283 0.327 C 12.117 1.006 10.997 1.759 9.928 2.582 L 15.162 7.405 C 15.454 7.669 15.411 8.21 15.081 8.426 C 12.219 10.307 10.214 12.468 9.099 15.079 C 8.148 17.306 7.845 19.881 8.261 22.935 L 9.837 24.037 C 8.618 16.333 13.582 11.954 19.436 9.123 Z M 6.937 0.721 C 0.859 5.308 -1.009 10.942 0.46 19.487 L 7.897 24.684 C 6.294 16.939 8.854 11.742 14.728 7.88 Z M 22.73 3.967 C 21.445 4.049 19.549 4.45 17.425 5.12 L 19.972 8.749 C 20.183 9.056 20.054 9.539 19.719 9.7 C 16.845 11.09 14.233 12.849 12.505 15.139 C 11.044 17.074 10.191 19.379 10.312 22.278 C 12.07 18.913 18.393 13.565 24.984 14.604 Z M 7.139 5.493 L 8.271 6.151 L 7.917 6.757 C 8.424 7.177 8.782 7.744 8.928 8.365 C 9.112 9.151 8.828 10.122 7.978 10.579 C 7.678 10.766 7.231 10.647 7.063 10.336 C 6.895 10.024 7.041 9.586 7.362 9.437 C 7.719 9.244 7.745 9.044 7.655 8.658 C 7.564 8.272 7.231 7.811 6.836 7.587 C 6.341 7.305 5.866 7.179 5.523 7.213 C 4.922 7.452 4.576 7.768 4.856 8.274 C 5.561 9.103 6.409 9.682 7.038 10.539 C 7.442 11.128 7.584 11.842 7.251 12.44 C 6.839 13.153 6.144 13.584 5.432 13.653 C 4.969 13.698 4.505 13.616 4.057 13.451 L 3.694 14.078 L 2.572 13.42 L 2.916 12.814 C 2.409 12.394 2.051 11.827 1.905 11.206 C 1.721 10.42 2.005 9.45 2.855 8.992 C 3.217 8.813 3.653 8.953 3.795 9.36 C 3.886 9.65 3.742 9.996 3.471 10.134 C 3.114 10.327 3.087 10.527 3.178 10.913 C 3.269 11.299 3.602 11.76 3.996 11.985 C 4.491 12.267 4.967 12.392 5.31 12.359 C 5.917 12.16 6.289 11.888 5.977 11.297 C 5.265 10.471 4.434 9.891 3.804 9.032 C 3.623 8.782 3.461 8.507 3.4 8.173 C 3.279 7.005 4.422 6.032 5.401 5.918 C 5.864 5.873 6.327 5.955 6.775 6.12 Z" fill="#46b583"></path></svg>