<?xml version="1.0" encoding="UTF-8"?>
<svg width="700px" height="700px" viewBox="0 0 700 700" xmlns="http://www.w3.org/2000/svg" xmlns:xlink="http://www.w3.org/1999/xlink" version="1.1">
 <!-- Generated by Pixelmator Pro 2.3 -->
 <g id="group">
  <path id="Path" d="M99.349 512.361 C148.492 570.242 206.373 616.109 274.089 648.874 299.206 660.887 334.157 675.086 372.375 678.363 L380.023 678.363 C406.236 678.363 428.078 668.536 445.553 649.97 L446.643 648.881 C452.105 642.329 458.656 635.778 466.297 629.227 470.662 624.862 476.124 619.399 480.496 615.027 503.434 591.001 503.434 558.236 480.496 535.305 L419.34 474.15 C408.416 462.136 394.224 455.585 380.025 455.585 365.825 455.585 351.632 462.136 340.709 473.06 L305.758 507.988 C303.571 506.899 301.393 505.802 299.206 504.712 294.841 502.526 291.558 501.436 288.282 499.25 255.517 478.498 226.028 451.196 197.638 416.252 184.535 399.874 174.7 384.585 169.245 371.474 177.983 363.826 185.623 355.096 193.271 347.448 196.547 344.172 199.823 340.896 203.098 337.621 215.112 325.607 221.663 311.408 221.663 297.215 221.663 283.015 215.112 268.822 203.098 256.809 L172.519 226.23 C169.244 222.954 165.968 219.678 162.692 215.306 156.141 208.754 148.493 201.106 141.94 194.554 131.016 183.63 116.824 177.078 102.625 177.078 88.425 177.078 75.322 182.541 63.309 194.554 L25.081 232.781 C10.882 246.981 2.143 265.546 -0.035 286.296 -2.221 319.061 6.516 349.638 14.165 369.294 31.632 419.527 58.935 464.305 99.349 512.358 Z M34.909 289.572 C35.998 277.558 40.371 266.634 50.198 257.905 L87.328 220.775 C90.603 217.499 96.065 213.127 102.617 213.127 109.168 213.127 113.541 216.403 117.906 220.775 L137.56 240.429 C140.835 243.705 144.111 248.078 148.484 251.353 L179.063 281.932 C182.338 285.208 186.711 291.759 186.711 297.221 186.711 303.773 182.346 309.235 179.063 312.51 175.787 315.786 172.511 319.062 169.236 322.338 L140.843 350.73 C129.919 361.654 132.105 371.482 134.291 378.033 L134.291 379.122 C141.94 398.776 153.945 416.252 170.331 438.092 200.91 476.319 233.673 505.8 269.714 528.736 274.079 532.012 279.541 534.199 283.914 536.385 288.279 538.571 291.562 539.661 294.838 541.847 L295.927 542.936 C306.851 548.398 317.767 546.212 326.506 537.474 L364.734 499.247 C368.009 495.971 373.472 491.598 380.023 491.598 385.485 491.598 390.947 495.963 394.223 499.247 L455.378 560.403 C465.206 570.23 465.206 581.155 455.378 592.07 L442.275 605.173 C434.627 611.724 428.076 619.372 420.435 627.013 409.511 637.937 397.497 643.391 381.12 643.391 L375.658 643.391 C342.892 641.205 312.316 628.102 290.473 617.179 228.22 586.6 173.614 544.008 127.748 489.403 90.619 444.624 65.494 402.032 48.027 357.254 37.095 331.071 32.73 310.321 34.908 289.569 Z M700 215.313 C700 322.337 601.715 410.799 480.487 410.799 460.833 410.799 441.172 408.613 421.518 404.248 411.69 402.061 406.228 392.234 408.415 383.496 410.601 373.669 420.428 368.207 429.167 370.393 445.545 374.758 463.02 376.944 479.407 376.944 580.969 376.944 663.975 304.864 663.975 217.493 663.975 129.035 580.977 58.042 479.407 58.042 377.845 58.042 294.84 130.123 294.84 217.493 294.84 254.623 309.039 288.476 335.246 316.877 339.611 321.242 340.708 328.89 338.521 334.352 334.156 345.276 329.784 355.104 323.232 362.745 335.246 361.656 348.349 358.38 361.46 350.731 370.198 345.269 380.025 348.545 385.486 356.194 390.948 364.931 387.672 374.758 380.024 380.22 346.171 400.972 310.129 398.785 291.566 396.598 281.738 395.509 274.09 387.86 271.912 379.123 269.725 369.296 274.098 360.558 281.739 355.097 290.477 349.634 298.117 340.897 302.491 331.07 275.188 298.305 260.989 257.899 260.989 216.398 260.989 109.373 359.274 22.003 480.502 22.003 600.621 20.921 699.995 108.283 699.995 215.315 Z M479.395 233.878 C469.568 233.878 460.83 225.14 460.83 215.313 460.83 205.486 469.568 196.748 479.395 196.748 489.222 196.748 497.96 205.486 497.96 215.313 497.96 226.229 490.311 233.878 479.395 233.878 Z M546.013 233.878 C536.186 233.878 527.449 225.14 527.449 215.313 527.449 205.486 536.186 196.748 546.013 196.748 555.841 196.748 564.578 205.486 564.578 215.313 564.578 226.229 555.84 233.878 546.013 233.878 Z M413.865 233.878 C404.038 233.878 395.3 225.14 395.3 215.313 395.3 205.486 404.038 196.748 413.865 196.748 423.692 196.748 432.43 205.486 432.43 215.313 432.43 226.229 423.692 233.878 413.865 233.878 Z" fill="#000000" fill-opacity="1" stroke="none"/>
 </g>
</svg>
