<?xml version="1.0" encoding="UTF-8"?>
<svg width="700px" height="700px" viewBox="0 0 700 700" xmlns="http://www.w3.org/2000/svg" xmlns:xlink="http://www.w3.org/1999/xlink" version="1.1">
 <!-- Generated by Pixelmator Pro 2.3 -->
 <g id="group">
  <path id="Path" d="M101.139 343.342 C45.327 343.342 -0.08 388.755 -0.08 444.556 -0.08 495.284 81.02 632.81 90.266 648.34 L101.144 666.545 112.001 648.34 C121.247 632.834 202.324 495.44 202.324 444.556 202.324 388.755 156.933 343.342 101.138 343.342 Z M101.139 616.649 C64.599 552.613 25.225 473.586 25.225 444.562 25.225 402.717 59.285 368.664 101.139 368.664 142.978 368.664 177.021 402.719 177.021 444.562 177.021 473.571 139.081 550.193 101.139 616.649 Z" fill="#000000" fill-opacity="1" stroke="none"/>
  <path id="Path-1" d="M101.139 406.171 C78.241 406.171 59.606 424.77 59.606 447.653 59.606 470.552 78.241 489.169 101.139 489.169 124.015 489.169 142.622 470.552 142.622 447.653 142.622 424.772 124.016 406.171 101.139 406.171 Z" fill="#000000" fill-opacity="1" stroke="none"/>
  <path id="Path-2" d="M477.531 212.581 L488.393 194.405 C493.042 186.644 533.806 117.756 533.806 90.706 533.806 59.667 508.557 34.419 477.525 34.419 446.493 34.419 421.244 59.667 421.244 90.706 421.244 117.756 462.008 186.644 466.657 194.399 Z M477.531 59.725 C494.607 59.725 508.507 73.62 508.507 90.701 508.507 101.693 493.55 133.381 477.531 162.425 461.524 133.393 446.555 101.711 446.555 90.701 446.555 73.626 460.456 59.725 477.531 59.725 Z" fill="#000000" fill-opacity="1" stroke="none"/>
  <path id="Path-3" d="M500.103 92.217 C500.103 79.756 489.976 69.635 477.521 69.635 465.055 69.635 454.916 79.757 454.916 92.217 454.916 104.683 465.055 114.816 477.521 114.816 489.976 114.816 500.103 104.677 500.103 92.217 Z" fill="#000000" fill-opacity="1" stroke="none"/>
  <path id="Path-4" d="M611.69 477.892 L343.343 477.892 C308.6 477.892 280.335 449.633 280.335 414.89 280.335 380.147 308.6 351.871 343.343 351.871 L611.676 351.871 C660.371 351.871 700 312.258 700 263.558 700 214.869 660.383 175.246 611.676 175.246 L506.898 175.251 506.898 200.556 611.676 200.556 C646.419 200.556 674.695 228.832 674.695 263.564 674.695 298.307 646.419 326.571 611.676 326.571 L343.343 326.571 C294.648 326.571 255.031 366.189 255.031 414.896 255.031 463.602 294.648 503.202 343.343 503.202 L611.676 503.202 C646.419 503.202 674.695 531.479 674.695 566.239 674.695 600.966 646.419 629.225 611.676 629.225 L139.429 629.219 139.429 654.524 611.676 654.524 C660.371 654.524 700 614.923 700 566.233 700 517.51 660.383 477.892 611.682 477.892 Z" fill="#000000" fill-opacity="1" stroke="none"/>
 </g>
</svg>
