<?xml version="1.0" encoding="UTF-8"?>
<svg width="700px" height="700px" viewBox="0 0 700 700" xmlns="http://www.w3.org/2000/svg" xmlns:xlink="http://www.w3.org/1999/xlink" version="1.1">
 <!-- Generated by Pixelmator Pro 2.3 -->
 <g id="group">
  <path id="Path" d="M573.693 461.774 C544.562 438.225 504.64 436.379 470.713 425.14 470.702 425.14 470.692 425.13 470.677 425.13 437.278 414.052 415.398 394.034 408.474 359.377 479.081 302.558 485.326 203.83 474.207 153.534 484.596 149.863 493.33 145.136 500.587 139.007 500.587 139.007 500.597 138.996 500.597 138.986 514.024 127.541 524.75 107.004 518.453 86.961 513.299 70.326 500.999 61.315 462.54 25.878 444.211 8.927 435.934 3.923 407.225 1.826 359.745 -1.548 311.998 0.277 265.324 7.297 208.022 15.851 219.02 44.142 208.164 59.705 197.895 74.43 164.208 75.807 163.872 111.153 163.631 139.434 189.115 156.441 214.848 148.717 214.802 149.014 214.762 149.2 214.717 149.502 204.418 217.474 222.134 293.604 269.866 352.19 266.743 359.115 265.255 364.249 263.072 371.722 245.095 433.653 200.974 414.375 154.751 434.046 65.508 471.882 75.862 619.549 151.165 670.978 221.52 718.981 445.138 701.908 524.784 659.9 623.185 608.18 627.67 505.305 573.692 461.768 Z M593.813 564.272 L588.286 558.735 594.175 552.847 594.391 553.063 C594.859 553.531 595.472 553.707 596.086 553.762 595.558 557.282 594.718 560.777 593.813 564.272 Z M590.308 548.979 L584.419 554.868 580.718 551.167 586.607 545.278 Z M566.835 470.271 C587.411 486.861 598.314 514.684 597.082 543.322 596.393 543.322 595.694 543.583 595.161 544.121 L594.165 545.117 589.423 540.375 C589.302 539.938 589.247 539.47 588.9 539.118 588.548 538.766 588.08 538.716 587.643 538.595 L582.926 533.878 C581.855 532.807 580.13 532.807 579.059 533.878 577.988 534.949 577.988 536.674 579.059 537.745 L582.73 541.416 576.841 547.304 574.624 545.087 C573.563 544.026 571.838 544.006 570.757 545.087 569.686 546.158 569.686 547.883 570.757 548.954 L572.974 551.171 551.251 572.91 C550.768 573.393 550.572 574.027 550.532 574.66 549.732 574.575 548.938 574.736 548.324 575.349 547.253 576.42 547.253 578.145 548.324 579.216 L561.519 592.411 547.329 606.601 539.977 599.25 543.955 595.272 C545.026 594.201 545.026 592.476 543.955 591.405 542.884 590.334 541.159 590.334 540.098 591.405 L536.121 595.383 532.691 591.953 C531.62 590.882 529.895 590.882 528.824 591.953 527.753 593.024 527.753 594.749 528.824 595.82 L532.254 599.25 524.902 606.601 522.443 604.142 C521.372 603.071 519.647 603.071 518.576 604.142 517.505 605.213 517.505 606.938 518.576 608.009 L521.035 610.468 506.859 624.644 502.459 620.244 C501.398 619.183 499.673 619.163 498.602 620.244 497.531 621.315 497.531 623.04 498.602 624.111 L503.002 628.511 488.333 643.18 476.34 631.187 483.234 624.293 C484.305 623.222 484.305 621.497 483.234 620.426 482.163 619.355 480.438 619.355 479.377 620.426 L454.44 645.338 453.193 644.091 C452.122 643.02 450.397 643.02 449.326 644.091 448.255 645.162 448.255 646.887 449.326 647.958 L450.573 649.205 441.999 657.779 436.121 651.916 C435.04 650.835 433.315 650.855 432.254 651.916 431.183 652.987 431.183 654.712 432.254 655.783 L438.132 661.646 429.066 670.713 420.733 662.38 442.588 640.525 C443.659 639.454 443.659 637.729 442.588 636.658 441.517 635.587 439.792 635.587 438.721 636.658 L416.866 658.513 416.605 658.252 C415.534 657.181 413.809 657.181 412.738 658.252 411.667 659.323 411.667 661.048 412.738 662.119 L412.999 662.38 404.903 670.476 400.488 666.061 C399.417 664.99 397.692 664.99 396.621 666.061 395.55 667.132 395.55 668.857 396.621 669.928 L401.036 674.343 396.144 679.236 C395.228 680.151 395.258 681.519 395.927 682.58 393.066 682.907 390.215 683.269 387.353 683.576 385.629 625.742 396.003 558.892 364.82 503.982 367.214 502.956 369.497 501.734 371.679 500.321 373.349 506.209 376.964 520.747 378.614 527.244 379.75 531.79 385.714 532.881 388.399 529.014 407.472 501.487 416.866 463.511 469.586 436.226 504.323 447.254 540.639 449.089 566.834 470.269 Z M562.716 569.174 L573.724 580.181 565.391 588.514 554.077 577.199 C554.439 577.069 554.841 577.059 555.138 576.762 Z M522.005 635.772 C523.066 636.833 524.791 636.843 525.872 635.772 L536.13 625.514 544.825 634.208 C539.198 638.533 533.093 642.455 526.767 646.156 526.878 645.336 526.747 644.507 526.114 643.873 L510.737 628.481 524.927 614.29 532.278 621.642 522.005 631.906 C520.939 632.977 520.939 634.702 522.005 635.773 Z M528.778 610.427 L536.13 603.075 543.482 610.427 536.13 617.779 Z M429.795 677.716 L442.004 665.506 448.436 671.938 C449.487 672.999 451.222 673.019 452.303 671.938 453.374 670.867 453.374 669.142 452.303 668.071 L445.871 661.639 454.445 653.065 466.831 665.451 C466.624 666.346 466.7 667.266 467.389 667.965 467.922 668.498 468.611 668.765 469.32 668.765 469.536 668.765 469.692 668.568 469.898 668.523 L470.532 669.157 C456.144 673.119 441.989 675.986 428.754 678.148 429.106 678.007 429.503 677.997 429.795 677.715 Z M476.526 667.422 L474.157 665.054 488.348 650.863 496.68 659.196 C497.138 659.654 497.741 659.819 498.34 659.885 491.118 662.736 483.847 665.301 476.55 667.478 476.535 667.468 476.535 667.448 476.525 667.423 Z M470.285 661.186 L458.292 649.193 472.482 635.003 484.475 646.996 Z M407.458 680.707 C407.719 680.969 408.091 680.969 408.428 681.11 406.014 681.426 403.591 681.658 401.177 681.949 L404.933 678.183 Z M346.838 507.859 C349.317 507.859 351.786 507.597 354.2 507.195 385.266 559.382 374.636 626.438 376.501 684.614 356.492 686.504 336.122 687.641 315.685 688.013 311.351 624.296 326.894 571.777 346.837 507.852 Z M273.545 374.763 C274.898 370.066 276.21 365.585 277.815 361.336 313.392 399.447 356.175 395.732 398.873 366.566 401.287 377.151 405.777 388.837 415.518 401.258 411.948 404.109 408.352 406.96 404.772 409.811 L395.062 400.101 400.075 395.087 C401.146 394.016 401.146 392.292 400.075 391.22 398.994 390.139 397.269 390.159 396.208 391.22 L390.978 396.465 C389.952 395.952 388.741 395.932 387.886 396.782 387.036 397.632 387.056 398.859 387.569 399.885 L386.498 400.956 C385.427 402.027 385.427 403.752 386.498 404.823 387.549 405.884 389.284 405.904 390.365 404.823 L391.215 403.973 400.477 413.236 C397.747 415.408 395.026 417.57 392.296 419.748 392.165 419.355 392.145 418.938 391.828 418.621 L390.913 417.706 395.76 412.859 C396.832 411.787 396.832 410.063 395.76 408.992 394.689 407.92 392.965 407.92 391.893 408.992 L387.046 413.839 378.799 405.592 C377.728 404.521 376.003 404.521 374.932 405.592 373.861 406.663 373.861 408.388 374.932 409.459 L383.179 417.706 374.997 425.888 368.671 419.562 373.851 414.382 C374.922 413.311 374.922 411.586 373.851 410.515 372.78 409.444 371.055 409.444 369.984 410.515 L364.392 416.107 C363.517 415.931 362.622 416.022 361.943 416.695 361.264 417.374 361.179 418.27 361.355 419.144 L352.987 427.512 350.518 425.043 C349.447 423.972 347.722 423.972 346.661 425.043 345.59 426.114 345.59 427.839 346.661 428.91 L349.13 431.379 340.033 440.476 334.331 434.773 C333.26 433.702 331.535 433.702 330.464 434.773 329.393 435.844 329.393 437.569 330.464 438.63 L336.166 444.343 331.48 449.029 C306.839 435.433 284.281 417.782 265.615 396.687 268.939 390.195 271.559 381.566 273.545 374.762 Z M324.5 371.036 L318.33 364.866 329.327 353.869 336.614 361.155 328.02 369.749 C326.949 370.82 326.949 372.545 328.02 373.616 329.081 374.677 330.806 374.687 331.877 373.616 L340.471 365.022 346.017 370.569 C347.078 371.63 348.803 371.64 349.884 370.569 350.956 369.498 350.956 367.773 349.884 366.702 L344.338 361.155 354.42 351.073 369.842 366.495 C371.185 367.838 373.755 367.652 374.288 365.077 375.469 364.192 387.659 351.902 388.805 350.771 L392.757 354.723 C393.687 355.654 395.07 355.89 396.383 354.824 371.335 373.078 338.709 385.846 310.539 372.67 L314.471 368.738 320.642 374.898 C321.703 375.959 323.427 375.969 324.508 374.898 325.57 373.822 325.57 372.097 324.498 371.036 Z M343.377 339.819 C343.453 339.919 343.423 340.06 343.518 340.146 L350.573 347.201 340.491 357.283 333.204 349.997 Z M385.713 319.789 L398.888 332.964 388.806 343.046 375.631 329.872 Z M396.656 354.618 C397.651 353.547 397.661 351.887 396.61 350.851 L392.658 346.899 402.74 336.817 409.579 343.656 C403.158 349.604 403.092 349.901 396.656 354.618 Z M384.949 346.899 L371.472 360.376 358.298 347.202 371.789 333.725 Z M351.74 452.148 L343.91 444.318 353.007 435.222 361.853 444.067 C358.483 446.762 355.084 449.443 351.74 452.148 Z M366.137 440.627 L356.865 431.355 364.815 423.404 371.171 429.761 C370.19 430.832 370.175 432.481 371.216 433.517 372.187 434.477 373.761 434.663 374.973 433.562 L374.983 433.572 C372.016 435.921 369.089 438.279 366.137 440.627 Z M379.267 430.138 L378.864 429.735 387.046 421.564 387.961 422.479 C388.127 422.645 388.354 422.61 388.54 422.72 385.427 425.18 382.369 427.674 379.267 430.138 Z M340.043 448.176 L347.451 455.583 C347.048 455.91 346.621 456.237 346.218 456.563 346.118 456.573 346.032 456.639 345.937 456.664 342.724 455.165 339.691 453.31 336.543 451.671 Z M346.555 469.034 C356.758 470.784 363.924 479.74 368.063 489.546 356.713 498.276 340.199 499.935 326.687 490.235 331.831 481.928 338.57 474.661 346.555 469.034 Z M456.033 431.235 C407.658 460.094 395.192 498.684 386.236 512.687 L384.521 505.924 C380.282 489.149 375.258 470.633 357.563 461.511 370.386 451.122 383.33 440.788 396.318 430.489 405.189 423.454 414.024 416.419 422.839 409.375 431.061 417.762 440.139 424.591 456.033 431.233 Z M413.597 340.106 C413.531 340.031 413.561 339.92 413.486 339.845 L406.607 332.966 418.545 321.028 424.257 326.74 C424.508 326.992 424.855 326.982 425.162 327.112 421.471 331.628 417.695 336.043 413.596 340.107 Z M451.804 282.147 L450.582 280.925 453.293 278.215 C452.8 279.527 452.327 280.85 451.804 282.147 Z M459.463 259.429 L454.308 254.274 462.621 245.962 C461.7 250.528 460.655 255.029 459.463 259.429 Z M460.841 216.43 C460.106 205.507 466.367 188.948 450.2 164.61 453.464 162.317 456.164 159.672 455.933 159.782 455.933 159.782 456.531 159.184 457.245 158.384 459.463 157.892 461.68 157.348 463.888 156.78 466.302 168.326 468.791 194.811 465.93 223.323 462.882 224.314 461.067 219.748 460.841 216.429 Z M358.71 162.13 L365.101 168.522 C364.02 169.603 357.981 175.416 357.292 176.779 L350.684 170.161 Z M383.124 158.243 L390.943 166.073 385.894 171.121 C385.175 171.841 385.12 172.826 385.382 173.741 383.395 174.093 381.298 174.44 379.071 174.792 L372.825 168.547 Z M372.307 175.743 C369.783 176.095 367.329 176.442 364.593 176.759 L368.953 172.399 Z M350.815 178.026 C348.105 178.222 345.244 178.298 342.428 178.428 L346.818 174.028 Z M394.801 169.93 L396.339 171.469 C395.027 171.75 393.719 172.057 392.407 172.318 Z M402.273 170.181 C402.142 169.9 402.152 169.568 401.921 169.331 L398.668 166.078 408.956 155.789 418.908 165.751 C413.391 167.365 407.855 168.869 402.273 170.181 Z M422.896 162 L412.824 151.917 420.352 144.39 C421.423 143.318 421.423 141.594 420.352 140.523 419.281 139.452 417.556 139.451 416.485 140.523 L408.957 148.035 408.223 147.301 C407.162 146.24 405.437 146.22 404.356 147.301 403.285 148.372 403.285 150.097 404.356 151.168 L405.09 151.902 394.801 162.191 386.982 154.361 397.094 144.249 C398.165 143.178 398.165 141.453 397.094 140.382 396.023 139.311 394.298 139.311 393.237 140.382 L381.692 151.953 C381.46 152.073 381.179 152.053 380.983 152.249 380.787 152.445 380.807 152.732 380.686 152.958 L368.964 164.68 362.573 158.279 373.4 147.452 C374.471 146.381 374.471 144.656 373.4 143.595 372.328 142.524 370.604 142.524 369.533 143.595 L346.823 166.314 338.913 158.394 C337.852 157.333 336.127 157.313 335.056 158.394 333.985 159.465 333.985 161.19 335.056 162.261 L342.966 170.181 337.515 175.632 C336.675 176.471 336.695 177.663 337.178 178.679 334.241 178.754 331.224 178.724 328.202 178.714 328.398 177.839 328.313 176.924 327.624 176.245 L321.977 170.598 342.87 149.705 C343.941 148.634 343.941 146.909 342.87 145.848 341.799 144.777 340.074 144.777 339.003 145.848 L318.11 166.741 312.246 160.878 C311.175 159.807 309.45 159.807 308.379 160.878 307.308 161.949 307.308 163.674 308.379 164.735 L314.243 170.598 307.092 177.739 C304.779 177.533 302.471 177.321 300.147 177.04 L296.14 173.032 317.898 151.274 C318.969 150.202 318.969 148.478 317.898 147.407 316.827 146.335 315.102 146.335 314.031 147.407 L292.273 169.165 288.461 165.353 C287.39 164.282 285.665 164.282 284.594 165.353 283.523 166.424 283.523 168.149 284.594 169.22 L288.406 173.032 286.475 174.963 C268.407 171.468 249.348 165.318 236.646 151.685 292.56 119.869 413.537 126.07 452.363 146.421 452.363 146.431 452.353 146.441 452.353 146.441 446.409 157.157 434.984 160.828 423.473 164.418 423.664 163.563 423.564 162.668 422.9 162 Z M322.329 178.645 C319.664 178.579 316.989 178.429 314.288 178.263 L318.12 174.431 Z M226.263 229.228 C222.089 204.412 221.631 179.65 224.93 155.006 225.398 155.619 225.881 156.208 226.393 156.831 229.561 160.598 233.418 163.922 237.602 167.044 229.079 188.969 243.596 219.945 226.263 229.228 Z M455.676 135.926 C410.052 113.72 286.857 109.451 230.06 142.926 217.534 120.253 224.71 93.892 271.864 83.111 305.671 75.311 343.602 74.044 384.594 79.385 420.881 84.076 461.008 99.75 455.679 135.926 Z M174.783 111.23 C175.044 82.371 204.13 84.589 217.098 65.942 230.842 46.346 216.037 25.703 266.937 18.08 312.833 11.165 359.801 9.375 406.431 12.714 432.299 14.57 438.433 18.472 455.149 33.894 493.879 69.588 503.972 77.07 508.024 90.18 512.122 103.224 506.158 119.868 493.516 130.651 484.972 137.872 475.393 142.01 464.797 145.113 468.116 135.664 468.01 123.716 463.54 112.758 450.813 82.195 417.171 72.585 385.989 68.542 348.039 63.629 306.542 63.88 269.407 72.474 232.784 80.852 205.816 102.062 215.767 136.819 197.654 145.112 174.562 135.009 174.783 111.229 Z M228.523 240.156 C255.491 230.531 241.95 190.383 247.013 173.08 298.908 201.436 399.316 188.14 440.626 169.856 455.24 191.026 449.19 206.263 449.934 217.186 450.548 226.187 455.747 233.745 464.603 234.269 464.156 237.296 463.698 240.333 463.14 243.3 463.019 242.873 462.974 242.425 462.637 242.088 461.566 241.017 459.841 241.017 458.77 242.088 L450.423 250.436 448.949 248.962 C447.868 247.881 446.143 247.901 445.082 248.962 444.011 250.034 444.011 251.758 445.082 252.829 L446.556 254.303 444.459 256.4 C443.388 257.471 443.388 259.196 444.459 260.257 445.52 261.318 447.245 261.328 448.326 260.257 L450.423 258.16 457.654 265.381 C457.206 266.864 456.789 268.363 456.311 269.826 455.351 269.474 454.28 269.489 453.515 270.264 L446.711 277.077 443.141 273.507 443.383 273.266 C444.454 272.195 444.454 270.47 443.383 269.399 442.311 268.328 440.587 268.328 439.526 269.399 L439.284 269.64 438.419 268.775 C437.348 267.704 435.623 267.704 434.552 268.775 433.481 269.846 433.481 271.571 434.552 272.632 L435.417 273.497 423.459 285.455 C422.398 284.485 420.749 284.449 419.703 285.5 418.667 286.536 418.677 288.186 419.658 289.257 L411.642 297.272 C410.571 298.343 410.571 300.068 411.642 301.139 412.703 302.19 414.428 302.22 415.509 301.139 L423.494 293.154 433.717 303.387 C434.799 304.468 436.523 304.438 437.584 303.387 438.655 302.316 438.655 300.591 437.584 299.52 L427.361 289.287 439.289 277.349 442.859 280.919 435.191 288.588 C434.12 289.659 434.12 291.384 435.191 292.455 436.262 293.516 437.987 293.526 439.058 292.455 L446.726 284.786 447.948 286.008 C448.461 286.521 449.13 286.753 449.804 286.773 444.026 300.013 436.851 312.343 428.352 323.416 428.241 323.24 428.276 323.024 428.121 322.858 L422.408 317.146 431.319 308.235 C432.39 307.164 432.39 305.439 431.319 304.368 430.248 303.297 428.523 303.297 427.452 304.368 L418.541 313.279 404.974 299.722 C403.903 298.651 402.178 298.651 401.107 299.722 400.036 300.793 400.036 302.518 401.107 303.589 L414.674 317.146 402.736 329.083 389.562 315.909 392.695 312.776 C393.766 311.705 393.766 309.98 392.695 308.909 391.624 307.838 389.899 307.838 388.828 308.909 L385.67 312.067 C384.599 311.087 382.949 311.061 381.903 312.112 380.867 313.148 380.877 314.798 381.858 315.869 L371.745 325.971 369.035 323.261 C367.964 322.19 366.239 322.19 365.168 323.261 364.097 324.332 364.097 326.057 365.168 327.128 L367.879 329.838 354.387 343.315 347.332 336.26 C347.247 336.175 347.101 336.195 347.005 336.129 L365.661 317.474 C366.732 316.402 366.732 314.678 365.661 313.607 364.59 312.535 362.865 312.535 361.804 313.607 L329.274 346.146 C328.203 345.166 326.553 345.151 325.517 346.191 324.481 347.227 324.491 348.877 325.472 349.948 L314.439 360.981 308.933 355.474 C307.862 354.403 306.137 354.403 305.066 355.474 303.995 356.545 303.995 358.27 305.066 359.341 L310.572 364.848 305.393 370.037 C280.119 355.162 242.425 305.289 228.52 240.159 Z M259.53 406.066 C280.971 429.725 306.924 449.417 335.432 463.638 317.485 478.438 305.899 500.941 304.641 524.193 291.633 523.232 279.191 492.361 274.646 480.187 267.711 461.642 260.269 440.863 235.609 424.098 245.792 419.457 253.666 413.448 259.53 406.066 Z M157.319 661.947 C88.965 615.252 77.912 478.49 159.004 444.08 178.656 435.723 200.585 435.552 222.53 428.909 250.263 443.688 258.174 467.302 264.398 484.003 271.257 502.297 284.91 535.153 305.094 535.153 309.771 535.153 315.428 533.418 315.428 528.556 315.408 518.715 317.625 508.959 321.543 499.938 325.912 502.855 330.76 504.997 335.864 506.285 315.166 572.692 300.508 624.567 304.731 688.144 243.08 688.723 191.734 685.424 157.32 661.941 Z M411.127 680.768 C411.183 680.723 411.258 680.748 411.313 680.693 412.384 679.622 412.384 677.897 411.313 676.826 L408.789 674.302 416.885 666.206 425.514 674.835 C425.142 675.805 425.142 676.901 425.932 677.686 426.359 678.113 426.927 678.244 427.48 678.329 421.843 679.24 416.337 680.069 411.128 680.768 Z M500.631 658.964 C501.516 657.893 501.536 656.334 500.53 655.328 L492.198 646.996 506.867 632.327 522.244 647.719 C522.541 648.016 522.933 648.026 523.295 648.157 522.073 648.836 520.937 649.6 519.689 650.254 513.474 653.517 507.073 656.333 500.631 658.963 Z M549.016 630.653 L539.995 621.632 547.347 614.28 556.629 623.563 C556.74 623.673 556.901 623.638 557.022 623.729 554.477 626.122 551.757 628.395 549.016 630.653 Z M560.647 620.068 C560.562 619.957 560.592 619.796 560.497 619.696 L551.214 610.413 565.404 596.223 572.047 602.866 C573.183 604.002 574.154 603.741 575.225 603.147 570.925 609.061 566.002 614.688 560.647 620.069 Z M576.684 600.934 C576.684 600.235 576.422 599.546 575.884 599.013 L569.241 592.371 577.574 584.038 578.896 585.371 C579.977 586.452 581.702 586.422 582.763 585.371 583.834 584.3 583.834 582.575 582.763 581.504 L581.441 580.171 581.999 579.613 C583.07 578.542 583.07 576.817 581.999 575.746 580.928 574.675 579.203 574.675 578.142 575.746 L577.584 576.304 566.576 565.296 576.855 555.008 580.556 558.709 578.579 560.685 C577.508 561.756 577.508 563.481 578.579 564.552 579.64 565.613 581.365 565.623 582.446 564.552 L584.423 562.576 590.05 568.213 C591.176 569.339 591.82 568.987 592.735 568.706 589.049 580.553 583.708 590.807 576.683 600.934 Z" fill="#000000" fill-opacity="1" stroke="none"/>
  <path id="Path-1" d="M438.589 551.77 C429.718 559.283 426.249 573.212 430.146 585.642 433.545 596.489 441.722 603.58 452.046 604.58 468.111 606.054 484.038 594.106 487.381 580.156 490.122 568.645 484.947 557.261 473.88 550.468 462.173 543.282 448.002 543.795 438.589 551.77 Z M453.092 593.704 C450.96 593.497 449.169 592.854 447.661 591.969 L451.965 587.664 457.778 593.477 C456.184 593.724 454.6 593.854 453.092 593.703 Z M463.546 591.758 C463.461 591.627 463.491 591.451 463.37 591.33 L455.832 583.802 460.695 578.94 468.922 587.167 C469.238 587.483 469.676 587.518 470.068 587.649 468.233 589.233 467.141 590.184 463.546 591.758 Z M476.751 577.623 C476.183 579.981 474.951 582.284 473.246 584.416 473.116 584.034 473.096 583.617 472.789 583.315 L464.049 574.575 C464.115 573.801 463.918 573.037 463.34 572.443 462.752 571.855 461.972 571.669 461.208 571.724 L460.63 571.146 C459.559 570.075 457.834 570.075 456.763 571.146 455.692 572.217 455.692 573.942 456.763 575.013 L456.828 575.078 451.966 579.941 450.894 578.87 C449.813 577.789 448.088 577.809 447.027 578.87 445.956 579.941 445.956 581.666 447.027 582.737 L448.099 583.808 443.633 588.273 C441.994 586.111 441.003 583.808 440.551 582.375 437.986 574.148 440.123 564.79 445.64 560.103 452.006 554.707 461.248 555.527 468.152 559.786 469.243 560.45 471.33 561.948 473.221 564.136 L466.196 571.161 C465.125 572.232 465.125 573.957 466.196 575.028 467.257 576.089 468.982 576.099 470.063 575.028 L476.148 568.943 C477.113 571.387 477.561 574.258 476.751 577.622 Z" fill="#000000" fill-opacity="1" stroke="none"/>
  <path id="Path-2" d="M245.259 61.367 L261.416 45.209 267.239 51.033 262.497 55.774 C261.426 56.846 261.426 58.57 262.497 59.631 263.558 60.692 265.283 60.703 266.354 59.631 L271.096 54.889 276.959 60.753 C278.04 61.834 279.765 61.804 280.826 60.753 281.897 59.682 281.897 57.957 280.826 56.886 L274.963 51.022 283.376 42.61 290.693 49.926 C291.754 50.987 293.478 50.997 294.549 49.926 295.621 48.855 295.621 47.13 294.549 46.059 L287.233 38.743 293.745 32.231 C294.816 31.159 294.816 29.435 293.745 28.364 292.674 27.292 290.949 27.292 289.878 28.364 L283.366 34.876 278.835 30.355 C278.332 29.852 277.668 29.621 277 29.601 L278.116 28.484 C279.187 27.413 279.187 25.688 278.116 24.617 277.045 23.546 275.32 23.546 274.249 24.617 L261.416 37.49 256.895 32.96 C255.834 31.889 254.109 31.889 253.038 32.96 251.967 34.031 251.967 35.756 253.038 36.827 L257.559 41.357 241.402 57.515 C240.331 58.586 240.331 60.311 241.402 61.372 242.463 62.428 244.188 62.438 245.259 61.367 Z M274.218 32.412 C274.238 33.076 274.47 33.735 274.983 34.248 L279.503 38.778 271.091 47.191 265.267 41.368 Z" fill="#000000" fill-opacity="1" stroke="none"/>
  <path id="Path-3" d="M247.113 534.456 L234.149 547.419 221.372 534.642 226.209 529.804 C227.28 528.733 227.28 527.008 226.209 525.937 225.138 524.866 223.413 524.866 222.342 525.937 L217.505 530.775 202.79 516.06 C201.719 514.989 199.995 514.989 198.923 516.06 197.852 517.132 197.852 518.856 198.923 519.927 L213.638 534.642 201.297 546.982 184.573 530.257 208.473 506.356 C209.544 505.285 209.544 503.56 208.473 502.489 207.402 501.418 205.677 501.418 204.606 502.489 L180.63 526.466 C179.559 525.601 178.02 525.571 177.024 526.576 176.028 527.572 176.054 529.111 176.913 530.182 L162.737 544.358 145.831 527.452 C144.76 526.38 143.035 526.38 141.974 527.452 140.903 528.523 140.903 530.247 141.974 531.319 L159.755 549.09 C159.84 549.623 159.961 550.171 160.378 550.589 160.796 551.006 161.339 551.122 161.877 551.212 L179.472 568.807 163.884 584.395 C162.813 585.466 162.813 587.191 163.884 588.262 164.945 589.323 166.67 589.333 167.751 588.262 L183.339 572.674 194.578 583.913 C195.639 584.974 197.364 584.984 198.445 583.913 199.516 582.842 199.516 581.117 198.445 580.046 L187.206 568.807 201.306 554.707 214.084 567.485 203.312 578.256 C202.241 579.327 202.241 581.052 203.312 582.123 204.373 583.184 206.098 583.194 207.169 582.123 L217.94 571.352 221.697 575.108 C222.758 576.169 224.483 576.179 225.564 575.108 226.635 574.037 226.635 572.312 225.564 571.241 L221.807 567.485 234.148 555.145 244.808 565.805 C245.869 566.866 247.594 566.876 248.675 565.805 249.746 564.734 249.746 563.009 248.675 561.938 L238.015 551.278 250.978 538.314 C252.049 537.243 252.049 535.518 250.978 534.447 249.907 533.401 248.177 533.401 247.111 534.458 Z M183.335 564.945 L166.61 548.22 180.71 534.12 197.435 550.845 Z M217.947 563.632 L205.169 550.855 217.509 538.515 230.287 551.292 Z" fill="#000000" fill-opacity="1" stroke="none"/>
 </g>
</svg>
