<?xml version="1.0" encoding="UTF-8"?>
<!-- Generated by Pixelmator Pro 2.3.8 -->
<svg width="933" height="933" viewBox="0 0 933 933" xmlns="http://www.w3.org/2000/svg" xmlns:xlink="http://www.w3.org/1999/xlink">
    <path id="Path" fill="#888888" stroke="none" d="M 67.850998 149.66687 L 865.407471 149.66687 C 882.492065 149.610474 898.967407 156.0495 911.484924 167.675964 C 924.001953 179.302307 931.636719 195.247986 932.831909 212.286804 C 934.038574 229.33728 928.71582 246.196106 917.946594 259.469849 L 519.182739 757.946289 L 519.182739 757.934998 C 506.394775 773.869141 487.077789 783.150146 466.644592 783.150146 C 446.211273 783.150146 426.892334 773.869446 414.106354 757.934998 L 15.34256 259.487549 C 4.573115 246.214478 -0.749447 229.354309 0.457285 212.304382 C 1.65262 195.26532 9.287058 179.319092 21.80426 167.693665 C 34.32143 156.067322 50.797104 149.628174 67.88166 149.684448 Z"/>
</svg>
