<?xml version="1.0" encoding="UTF-8"?>
<svg width="700px" height="700px" viewBox="0 0 700 700" xmlns="http://www.w3.org/2000/svg" xmlns:xlink="http://www.w3.org/1999/xlink" version="1.1">
 <!-- Generated by Pixelmator Pro 2.3 -->
 <g id="group">
  <path id="Path" d="M508.222 280.414 C521.649 357.125 468.855 403.119 428.012 431.269 L428.012 431.263 C409.57 442.713 395.76 460.299 389.016 480.934 387.507 486.551 384.212 491.522 379.635 495.107 375.059 498.692 369.441 500.687 363.627 500.805 L361.422 500.805 C353.168 500.817 345.388 496.93 340.448 490.321 335.126 483.706 333.408 474.897 335.847 466.772 345.758 433.296 367.371 404.505 396.74 385.638 436.66 358.412 454.69 333.392 455.059 304.88 455.434 278.554 443.645 253.528 423.102 237.062 402.554 220.598 375.563 214.537 349.95 220.635 324.339 226.733 302.977 244.313 292.062 268.267 289.432 274.014 284.831 278.615 279.09 281.251 273.349 283.881 266.857 284.368 260.791 282.619 L258.949 282.249 C251.385 280.05 245.145 274.679 241.837 267.534 238.56 260.684 238.492 252.732 241.658 245.827 258.283 208.962 289.998 181.053 328.675 169.245 367.353 157.438 409.243 162.87 443.625 184.164 478.015 205.451 501.549 240.524 508.221 280.413 Z M359.578 518.835 C350.603 518.835 341.993 522.401 335.641 528.746 329.297 535.096 325.73 543.707 325.73 552.682 325.73 561.663 329.297 570.274 335.641 576.619 341.992 582.969 350.603 586.536 359.578 586.536 368.558 586.536 377.163 582.969 383.514 576.619 389.865 570.275 393.431 561.663 393.431 552.682 393.395 543.714 389.816 535.121 383.478 528.777 377.139 522.439 368.547 518.854 359.579 518.817 Z M698.081 72.885 C678.814 46.915 651.361 28.184 620.15 19.721 603.894 15.594 587.405 12.434 570.775 10.26 565.743 9.564 561.093 13.075 560.39 18.107 559.688 23.146 563.205 27.79 568.238 28.492 584.099 30.549 599.824 33.549 615.334 37.473 642.609 44.926 666.588 61.348 683.397 84.088 685.134 86.404 687.863 87.765 690.758 87.765 692.753 87.784 694.694 87.137 696.277 85.929 698.272 84.451 699.585 82.227 699.917 79.77 700.25 77.312 699.572 74.818 698.045 72.865 Z M687.265 195.977 C692.784 248.407 695.543 344.99 695.543 374.792 695.543 404.595 692.784 501.36 687.265 553.608 682.116 601.621 657.828 662.701 605.953 676.683 556.837 689.747 454.55 695.63 374.881 695.63 295.224 695.63 192.943 689.741 143.808 676.683 91.933 662.7 67.46 601.621 62.496 553.608 56.977 501.362 54.033 404.595 54.033 374.792 54.033 344.99 56.977 248.41 62.496 195.977 67.461 147.963 91.933 86.884 143.808 73.086 186.82 61.494 277.521 54.139 374.833 54.139 472.146 54.139 562.668 61.5 605.905 73.086 657.781 86.865 682.063 147.962 687.218 195.958 Z M677.145 374.792 C677.145 340.945 674.016 245.829 668.866 197.995 664.45 155.685 644.031 102.331 601.165 90.744 526.561 76.94 450.737 70.843 374.887 72.53 299.037 70.83 223.212 76.934 148.608 90.744 105.559 102.336 85.14 155.685 80.723 197.995 75.759 245.824 72.445 340.934 72.445 374.792 72.445 408.639 75.759 503.933 80.723 551.763 85.14 593.888 105.743 647.427 148.608 658.828 223.189 672.816 299.026 678.982 374.887 677.227 450.748 678.976 526.585 672.81 601.165 658.828 644.031 647.42 664.449 593.887 668.866 551.763 673.979 503.915 677.108 408.621 677.108 374.761 Z M525.428 23.422 C529.148 23.422 532.499 21.18 533.928 17.743 535.351 14.306 534.562 10.351 531.932 7.721 529.302 5.091 525.341 4.302 521.904 5.725 518.467 7.148 516.231 10.505 516.231 14.225 516.219 19.295 520.315 23.422 525.391 23.44 Z M9.276 438.166 C12.996 438.166 16.347 435.924 17.776 432.487 19.199 429.05 18.411 425.095 15.78 422.465 13.15 419.835 9.196 419.046 5.753 420.469 2.315 421.892 0.079 425.249 0.079 428.97 0.079 431.409 1.047 433.749 2.771 435.474 4.496 437.199 6.836 438.166 9.276 438.166 Z M19.433 473.448 L19.433 473.454 C19.433 469.734 17.191 466.377 13.754 464.954 10.317 463.531 6.356 464.32 3.726 466.95 1.096 469.58 0.307 473.534 1.736 476.971 3.159 480.409 6.51 482.651 10.23 482.651 15.312 482.651 19.433 478.536 19.433 473.454 Z M13.914 513.812 L13.914 513.819 C10.194 513.819 6.837 516.055 5.414 519.492 3.991 522.929 4.779 526.889 7.41 529.519 10.04 532.15 13.994 532.938 17.431 531.515 20.868 530.086 23.11 526.735 23.11 523.015 23.11 517.933 18.99 513.819 13.914 513.819 Z" fill="#000000" fill-opacity="1" stroke="none"/>
 </g>
</svg>
