<?xml version="1.0" encoding="UTF-8"?>
<svg width="700px" height="700px" viewBox="0 0 700 700" xmlns="http://www.w3.org/2000/svg" xmlns:xlink="http://www.w3.org/1999/xlink" version="1.1">
 <!-- Generated by Pixelmator Pro 2.3 -->
 <g id="group">
  <path id="Path" d="M563.88 19.582 L136.115 19.582 C100.028 19.628 65.432 33.983 39.917 59.497 14.402 85.012 0.047 119.607 0.002 155.695 L0.002 427.911 C0.048 463.997 14.403 498.594 39.917 524.109 65.432 549.624 100.027 563.979 136.115 564.023 L243.666 564.023 335.079 673.705 335.073 673.705 C338.771 678.132 344.233 680.69 350.001 680.69 355.763 680.69 361.231 678.132 364.923 673.705 L456.336 564.023 563.887 564.023 C599.974 563.978 634.57 549.629 660.085 524.109 685.605 498.594 699.955 463.999 700 427.911 L700 155.695 C699.954 119.608 685.599 85.012 660.085 59.497 634.57 33.982 599.975 19.627 563.887 19.582 Z M661.1 427.914 L661.106 427.914 C661.08 453.696 650.826 478.409 632.598 496.63 614.375 514.86 589.661 525.114 563.882 525.139 L447.215 525.139 C441.454 525.132 435.985 527.697 432.294 532.124 L349.995 630.867 267.697 532.124 C264.006 527.697 258.537 525.132 252.776 525.139 L136.109 525.139 C110.328 525.113 85.615 514.859 67.393 496.63 49.163 478.407 38.91 453.694 38.885 427.914 L38.885 155.698 C38.911 129.923 49.165 105.21 67.393 86.982 85.616 68.752 110.329 58.505 136.109 58.479 L563.875 58.479 C589.656 58.505 614.369 68.752 632.591 86.982 650.821 105.212 661.074 129.925 661.099 155.698 Z" fill="#000000" fill-opacity="1" stroke="none"/>
  <path id="Path-1" d="M349.997 369.577 C339.685 369.577 329.789 373.679 322.498 380.971 315.206 388.262 311.111 398.152 311.111 408.47 311.111 418.783 315.206 428.672 322.498 435.964 329.789 443.262 339.684 447.357 349.997 447.357 360.311 447.357 370.206 443.262 377.497 435.964 384.789 428.672 388.884 418.782 388.884 408.47 388.878 398.158 384.776 388.276 377.484 380.984 370.193 373.692 360.309 369.591 349.998 369.578 Z" fill="#000000" fill-opacity="1" stroke="none"/>
  <path id="Path-2" d="M349.997 136.245 C339.685 136.258 329.803 140.36 322.511 147.651 315.219 154.943 311.118 164.826 311.111 175.138 L311.111 291.804 C311.111 305.697 318.52 318.536 330.551 325.482 342.582 332.429 357.413 332.429 369.444 325.482 381.476 318.536 388.884 305.697 388.884 291.804 L388.884 175.138 C388.878 164.825 384.776 154.943 377.485 147.651 370.193 140.36 360.31 136.258 349.998 136.245 Z" fill="#000000" fill-opacity="1" stroke="none"/>
 </g>
</svg>
