<?xml version="1.0" encoding="UTF-8"?>
<!-- Generated by Pixelmator Pro 2.3.8 -->
<svg width="933" height="933" viewBox="0 0 933 933" xmlns="http://www.w3.org/2000/svg" xmlns:xlink="http://www.w3.org/1999/xlink">
    <g id="Group">
        <path id="Path" fill="#000000" stroke="none" d="M 70.077576 474.808014 L 209.352264 538.216553 L 209.352264 918.679688 L 31.572231 838.280151 C 15.727921 830.35791 5.53067 814.50531 5.53067 796.385986 L 5.53067 515.567871 C 5.53067 499.715729 13.460832 486.129272 25.908581 477.070648 C 33.838741 472.5448 41.760807 470.277893 50.819862 470.277893 C 56.491009 470.277893 63.283787 471.407318 70.076355 474.803741 Z M 908.002441 525.760925 L 730.23053 445.369446 L 730.23053 825.832581 L 869.50531 889.241089 C 884.228027 896.033936 900.080139 894.904419 912.535767 885.844788 C 926.121399 876.785156 932.913696 863.200195 932.913696 847.347534 L 932.913696 566.529419 C 934.051025 549.547729 923.854126 532.557556 908.002441 525.765503 Z M 489.040009 651.449646 C 484.51416 657.112915 477.71347 661.638794 469.791382 661.638794 C 461.861267 661.638794 455.068695 658.242371 450.542755 651.449646 L 357.687592 515.571899 L 254.651566 541.613525 L 254.651566 925.473694 L 684.937317 823.567932 L 684.929443 438.57547 L 624.915894 453.298187 Z M 661.156372 118.121765 C 697.394958 191.719238 691.731262 274.385437 646.433655 341.190979 L 469.791992 599.362427 L 293.150421 342.323242 C 247.861221 275.517761 242.197525 191.723267 278.427673 119.254089 C 313.527893 47.915222 380.341522 3.754333 458.466278 0.357361 L 481.11087 0.357361 C 559.243652 3.753662 626.057312 47.915222 661.157532 118.123718 Z M 594.35083 217.760803 C 594.35083 148.688599 538.864563 93.200378 469.790375 93.200378 C 400.716156 93.200378 345.22995 148.686646 345.22995 217.760803 C 345.22995 286.833008 400.716156 342.321228 469.790375 342.321228 C 538.864563 342.321228 594.35083 285.704712 594.35083 217.760803 Z M 469.790375 138.499695 C 425.629486 138.499695 390.529266 173.599915 390.529266 217.760803 C 390.529266 261.921692 425.629486 297.021912 469.790375 297.021912 C 513.951294 297.021912 549.051575 261.921692 549.051575 217.760803 C 549.051575 173.599915 513.951294 138.499695 469.790375 138.499695 Z"/>
    </g>
</svg>
