<?xml version="1.0" encoding="UTF-8"?>
<svg width="700px" height="700px" viewBox="0 0 700 700" xmlns="http://www.w3.org/2000/svg" xmlns:xlink="http://www.w3.org/1999/xlink" version="1.1">
 <!-- Generated by Pixelmator Pro 2.3 -->
 <g id="group">
  <path id="Path" d="M349.979 -0.039 C157.049 -0.039 -0.04 157.05 -0.04 349.98 -0.04 542.911 157.049 700 349.979 700 542.91 700 699.999 542.911 699.999 349.98 699.999 157.05 542.91 -0.039 349.979 -0.039 Z M349.979 686.274 C164.675 686.274 13.686 535.285 13.686 349.98 13.686 164.676 164.675 13.687 349.979 13.687 535.284 13.687 686.273 164.676 686.273 349.98 686.273 535.285 535.284 686.274 349.979 686.274 Z" fill="#000000" fill-opacity="1" stroke="none"/>
  <path id="Path-1" d="M349.979 60.968 C190.602 60.968 60.966 190.603 60.966 349.982 60.966 387.349 67.827 409.462 83.077 419.377 105.956 434.627 141.797 419.377 186.787 399.552 217.287 386.589 252.368 371.338 290.496 362.95 L307.273 363.71 C313.374 381.248 330.151 394.21 349.216 394.21 370.568 394.21 388.105 379.72 392.685 359.896 436.914 367.524 477.33 385.061 511.644 399.551 543.672 413.275 571.885 425.477 593.242 425.477 601.63 425.477 609.259 423.95 615.354 419.376 630.604 409.461 637.466 387.348 637.466 349.981 638.987 190.604 509.351 60.967 349.977 60.967 Z M349.979 380.485 C333.203 380.485 319.479 366.761 319.479 349.985 319.479 333.208 333.203 319.484 349.979 319.484 366.756 319.484 380.48 333.208 380.48 349.985 380.48 366.761 366.756 380.485 349.979 380.485 Z M609.253 408.704 C592.477 420.14 559.689 405.656 517.746 388.113 482.665 372.863 440.728 355.325 394.972 347.697 393.446 324.059 374.382 305.754 350.743 305.754 330.918 305.754 314.903 318.717 308.801 336.254 L105.957 346.169 C103.67 346.169 102.143 347.696 102.143 349.983 102.143 352.271 103.67 353.797 105.957 353.797 L250.845 361.425 C226.44 369.814 203.567 379.728 182.977 388.118 141.034 405.655 108.246 420.146 91.47 408.708 80.033 401.081 74.693 382.016 74.693 349.989 74.693 198.238 198.228 74.702 349.981 74.702 501.732 74.696 625.269 198.231 625.269 349.989 625.269 382.017 619.928 401.081 609.252 408.708 Z" fill="#000000" fill-opacity="1" stroke="none"/>
  <path id="Path-2" d="M186.027 185.264 C181.452 189.839 181.452 196.7 186.027 201.281 188.314 203.568 191.368 204.329 194.416 204.329 197.464 204.329 200.517 202.802 202.804 201.281 207.379 196.706 207.379 189.844 202.804 185.264 197.464 180.689 190.602 180.689 186.028 185.264 Z" fill="#000000" fill-opacity="1" stroke="none"/>
  <path id="Path-3" d="M261.521 134.935 C255.42 137.222 253.133 144.084 255.42 150.185 256.947 154.759 261.521 157.046 266.096 157.046 267.623 157.046 269.144 157.046 270.67 156.286 276.772 153.998 279.059 147.137 276.772 141.036 273.724 134.935 266.862 132.647 261.522 134.935 Z" fill="#000000" fill-opacity="1" stroke="none"/>
  <path id="Path-4" d="M150.186 254.658 C144.085 252.371 137.984 254.658 134.936 260.759 132.649 266.86 134.936 272.962 141.037 276.009 142.564 276.77 144.085 276.77 145.612 276.77 150.187 276.77 154.001 274.483 156.288 269.908 158.575 263.046 156.288 256.945 150.187 254.658 Z" fill="#000000" fill-opacity="1" stroke="none"/>
  <path id="Path-5" d="M543.672 269.909 C545.199 274.484 549.773 276.771 554.348 276.771 555.875 276.771 557.396 276.771 558.922 276.011 565.024 273.723 567.311 266.861 565.024 260.761 562.736 254.659 555.875 252.372 549.774 254.659 544.438 256.947 541.385 263.808 543.672 269.909 Z" fill="#000000" fill-opacity="1" stroke="none"/>
  <path id="Path-6" d="M559.686 349.979 C559.686 356.08 565.027 361.415 571.122 361.415 577.224 361.415 582.559 356.075 582.559 349.979 582.559 343.878 577.218 338.543 571.122 338.543 565.027 338.543 559.686 343.878 559.686 349.979 Z" fill="#000000" fill-opacity="1" stroke="none"/>
  <path id="Path-7" d="M498.681 186.027 C494.106 190.601 494.106 197.463 498.681 202.043 500.968 204.331 504.021 205.857 507.069 205.857 510.117 205.857 513.17 205.097 515.458 202.809 520.032 198.235 520.032 191.373 515.458 186.793 510.122 181.447 502.495 181.447 498.681 186.027 Z" fill="#000000" fill-opacity="1" stroke="none"/>
  <path id="Path-8" d="M439.2 134.935 C433.099 132.647 426.998 134.935 423.95 141.036 421.663 147.137 423.95 153.238 430.051 156.286 431.578 157.046 433.099 157.046 434.626 157.046 439.201 157.046 443.014 154.759 445.302 150.185 447.589 144.089 445.302 137.227 439.2 134.935 Z" fill="#000000" fill-opacity="1" stroke="none"/>
  <path id="Path-9" d="M350.742 117.395 C344.641 117.395 339.306 121.97 339.306 128.832 339.306 134.933 343.88 140.268 350.742 140.268 356.843 140.268 362.178 134.927 362.178 128.832 362.184 122.736 356.843 117.395 350.742 117.395 Z" fill="#000000" fill-opacity="1" stroke="none"/>
  <path id="Path-10" d="M253.896 495.63 L446.063 495.63 446.063 508.593 253.896 508.593 Z" fill="#000000" fill-opacity="1" stroke="none"/>
  <path id="Path-11" d="M311.851 549.01 L388.108 549.01 388.108 561.973 311.851 561.973 Z" fill="#000000" fill-opacity="1" stroke="none"/>
 </g>
</svg>
