<?xml version="1.0" encoding="UTF-8"?>
<!-- Generated by Pixelmator Pro 2.3.8 -->
<svg width="933" height="933" viewBox="0 0 933 933" xmlns="http://www.w3.org/2000/svg" xmlns:xlink="http://www.w3.org/1999/xlink">
    <g id="Group">
        <path id="Path" fill="#000000" stroke="none" d="M 837.73584 167.266663 L 95.264236 167.266663 C 43.212631 167.266663 -0 210.481079 -0 262.530945 L -0 671.08667 C -0 723.138306 43.214378 766.35083 95.264236 766.35083 L 837.73584 766.35083 C 889.787354 766.35083 933 723.136475 933 671.08667 L 933 262.530945 C 933 209.500671 889.785706 167.266663 837.73584 167.266663 Z M 270.078979 291.995789 C 316.237915 291.995789 354.540009 329.317566 354.540009 376.456848 C 354.540009 422.615753 317.218262 460.917847 270.078979 460.917847 C 222.939651 460.917847 185.617889 423.596161 185.617889 376.456848 C 185.617889 330.297913 222.939651 291.995789 270.078979 291.995789 Z M 138.478592 603.32312 C 138.478592 545.380737 160.08493 494.309509 193.474762 462.88562 C 214.102463 480.559998 240.614044 492.350494 270.078979 492.350494 C 299.543854 492.350494 326.062469 481.547028 346.683167 462.88562 C 380.072968 494.316498 401.679321 545.380737 401.679321 603.32312 C 400.699646 654.394409 138.475098 654.394409 138.475098 603.32312 Z M 777.829163 634.754028 L 520.517517 634.754028 C 507.748077 634.754028 496.945251 623.950562 496.945251 611.181763 C 496.945251 598.412964 507.74881 587.609497 520.517517 587.609497 L 777.829163 587.609497 C 790.598572 587.609497 801.401428 598.412964 801.401428 611.181763 C 801.401428 623.950562 791.577637 634.754028 777.829163 634.754028 Z M 777.829163 490.384583 L 520.517517 490.384583 C 507.748077 490.384583 496.945251 479.581055 496.945251 466.812317 C 496.945251 454.043488 507.74881 443.240051 520.517517 443.240051 L 777.829163 443.240051 C 790.598572 443.240051 801.401428 454.043488 801.401428 466.812317 C 801.401428 479.581055 791.577637 490.384583 777.829163 490.384583 Z M 777.829163 346.993713 L 520.517517 346.993713 C 507.748077 346.993713 496.945251 336.190186 496.945251 323.421448 C 496.945251 310.652649 507.74881 299.849121 520.517517 299.849121 L 777.829163 299.849121 C 790.598572 299.849121 801.401428 310.652649 801.401428 323.421448 C 801.401428 336.190186 791.577637 346.993713 777.829163 346.993713 Z"/>
    </g>
</svg>
