<?xml version="1.0" encoding="UTF-8"?>
<svg width="700px" height="700px" viewBox="0 0 700 700" xmlns="http://www.w3.org/2000/svg" xmlns:xlink="http://www.w3.org/1999/xlink" version="1.1">
 <!-- Generated by Pixelmator Pro 2.3 -->
 <g id="group">
  <path id="Path" d="M449.023 45.068 L483.875 118.67 C492.377 136.627 509.224 148.871 528.932 151.422 L609.53 161.579 594.539 241.664 C590.889 261.159 597.316 280.928 611.727 294.558 L670.926 350.192 611.727 406.18 C597.316 419.803 590.895 439.578 594.539 459.074 L609.737 538.872 528.932 549.315 C509.224 551.86 492.383 564.104 483.875 582.067 L449.359 655.56 377.88 616.484 C369.359 611.815 359.722 609.355 350.011 609.355 340.3 609.355 330.668 611.815 322.148 616.472 L250.999 655.657 216.141 582.055 C207.638 564.098 190.792 551.854 171.084 549.309 L90.486 539.153 105.477 459.067 C109.127 439.572 102.7 419.797 88.295 406.173 L29.09 350.54 88.295 294.545 C102.706 280.916 109.127 261.146 105.477 241.651 L90.279 161.853 171.084 151.41 C190.792 148.865 207.633 136.621 216.141 118.658 L250.882 45.293 322.136 84.247 C330.656 88.904 340.288 91.364 349.999 91.364 359.709 91.364 369.341 88.904 377.861 84.247 L449.023 45.068 M250.802 16.027 C240.005 16.027 229.599 22.094 224.63 32.581 L189.778 106.183 C185.561 115.082 177.113 121.228 167.348 122.486 L86.543 132.93 C70.063 135.06 58.766 150.605 61.817 166.933 L76.808 247.018 C78.614 256.68 75.392 266.598 68.251 273.354 L9.045 329.343 C-3.022 340.756 -3.022 359.958 9.045 371.371 L68.251 427.359 C75.392 434.116 78.614 444.034 76.808 453.695 L61.817 533.781 C58.76 550.114 70.063 565.653 86.536 567.784 L167.342 578.227 C177.108 579.491 185.561 585.631 189.772 594.537 L224.63 668.139 C229.598 678.625 240.005 684.693 250.802 684.693 255.478 684.693 260.232 683.551 264.645 681.14 L336.13 642.065 C340.452 639.703 345.231 638.525 350.004 638.525 354.777 638.525 359.556 639.709 363.877 642.071 L435.356 681.147 C439.769 683.557 444.524 684.699 449.199 684.699 459.996 684.699 470.402 678.632 475.371 668.145 L510.223 594.543 C514.441 585.644 522.888 579.498 532.653 578.24 L613.459 567.797 C629.939 565.666 641.236 550.121 638.178 533.793 L623.187 453.708 C621.381 444.046 624.603 434.128 631.745 427.372 L690.95 371.383 C703.017 359.97 703.017 340.767 690.95 329.355 L631.751 273.367 C624.61 266.61 621.387 256.692 623.193 247.031 L638.184 166.945 C641.242 150.612 629.944 135.073 613.465 132.942 L532.659 122.499 C522.894 121.235 514.44 115.095 510.229 106.189 L475.378 32.58 C470.409 22.095 460.003 16.027 449.205 16.027 444.524 16.027 439.775 17.168 435.362 19.579 L363.877 58.655 C359.556 61.017 354.783 62.201 350.004 62.201 345.231 62.201 340.452 61.017 336.13 58.655 L264.645 19.579 C260.232 17.168 255.484 16.027 250.802 16.027 Z" fill="#000000" fill-opacity="1" stroke="none"/>
  <path id="Path-1" d="M252.209 287.722 L236.315 287.722 236.315 386.075 170.519 287.722 153.514 287.722 153.514 412.992 169.408 412.992 169.408 314.554 235.204 412.992 252.209 412.992 Z" fill="#000000" fill-opacity="1" stroke="none"/>
  <path id="Path-2" d="M370.991 287.722 L280.414 287.722 280.414 412.992 373.896 412.992 373.896 398.209 296.99 398.209 296.99 355.57 366.291 355.57 366.291 340.872 296.99 340.872 296.99 302.505 370.99 302.505 Z" fill="#000000" fill-opacity="1" stroke="none"/>
  <path id="Path-3" d="M546.493 287.722 L529.83 287.722 510.177 368.217 C507.614 378.471 505.532 387.559 503.939 395.475 501.943 381.632 498.696 366.849 494.198 351.126 L476.254 287.722 456.258 287.722 432.417 372.318 C431.85 374.369 429.97 382.09 426.778 395.475 425.294 386.985 423.531 378.44 421.48 369.84 L402.425 287.722 385.42 287.722 418.659 412.992 435.578 412.992 462.154 317.544 C463.295 313.498 464.516 308.602 465.828 302.847 466.225 304.672 467.537 309.567 469.759 317.544 L496.162 412.992 512.142 412.992 Z" fill="#000000" fill-opacity="1" stroke="none"/>
 </g>
</svg>
