<svg xmlns="http://www.w3.org/2000/svg" width="1015" height="935"><path d="M 585.788 670.32 C 583.181 673.077 580.562 675.849 577.954 678.627 C 577.954 678.633 577.943 678.639 577.943 678.645 C 560.901 696.759 541.349 717.835 525.057 736.684 C 518.869 743.843 508.717 746.054 500.126 742.115 C 492.884 738.798 496.195 738.292 432.147 670.314 C 336.852 681.648 295.439 710.097 295.439 722.674 C 295.439 739.66 368.087 779.454 508.962 779.454 C 649.836 779.454 722.499 739.666 722.499 722.674 C 722.499 710.104 681.093 681.648 585.791 670.32 Z" fill="#000000"></path><path d="M 508.976 727.865 C 622.673 601.301 800.78 445.188 800.78 291.225 C 800.78 130.654 669.877 0.015 508.976 0.015 C 348.076 0.015 217.173 130.662 217.173 291.239 C 217.173 444.94 394.5 600.581 508.976 727.879 Z M 258.196 291.195 C 258.196 153.076 370.699 40.712 508.976 40.712 C 647.246 40.712 759.742 153.081 759.742 291.195 C 759.742 429.331 647.245 541.708 508.976 541.708 C 370.689 541.708 258.196 429.333 258.196 291.195 Z" fill="#000000"></path><path d="M 660.23 440.695 L 603.492 440.695 C 608.087 437.231 611.068 431.721 611.068 425.528 L 611.068 398.976 L 573.254 398.976 L 573.254 425.528 C 573.254 431.721 576.235 437.231 580.831 440.695 L 437.121 440.695 C 441.716 437.231 444.693 431.721 444.693 425.528 L 444.699 398.976 L 406.889 398.976 L 406.889 425.528 C 406.889 431.721 409.866 437.231 414.465 440.695 L 357.729 440.695 C 355.64 440.696 353.946 442.395 353.945 444.491 C 353.949 446.584 355.642 448.279 357.729 448.279 L 660.235 448.279 C 662.294 448.238 663.942 446.553 663.942 444.487 C 663.942 442.421 662.294 440.736 660.235 440.695 Z M 592.158 307.941 C 585.905 307.941 580.815 313.046 580.815 319.326 C 580.815 325.604 585.905 330.704 592.158 330.704 C 598.418 330.704 603.501 325.598 603.501 319.326 C 603.508 313.046 598.418 307.941 592.158 307.941 Z M 497.634 213.127 C 497.634 211.03 499.332 209.332 501.423 209.332 C 503.514 209.332 505.2 211.031 505.2 213.127 L 505.2 262.438 L 595.946 262.438 L 595.946 186.587 L 414.459 186.587 L 414.459 262.438 L 497.641 262.438 Z M 425.795 307.941 C 419.535 307.941 414.457 313.046 414.457 319.326 C 414.457 325.604 419.541 330.704 425.795 330.704 C 432.056 330.704 437.138 325.598 437.138 319.326 C 437.138 313.046 432.048 307.941 425.795 307.941 Z" fill="rgb(0,0,0)"></path><path d="M 633.763 280.241 C 633.773 277.118 632.535 274.122 630.327 271.922 L 624.283 265.866 C 620.657 262.243 618.626 257.316 618.64 252.183 L 618.64 183.905 C 618.64 151.901 592.687 125.872 560.792 125.872 L 449.617 125.872 C 417.721 125.872 391.768 151.901 391.768 183.905 L 391.768 252.185 C 391.778 257.317 389.748 262.241 386.126 265.866 L 380.076 271.922 C 377.868 274.122 376.632 277.119 376.645 280.241 L 376.64 361.038 L 633.76 361.038 Z M 456.043 148.635 L 554.355 148.635 C 556.416 148.675 558.065 150.362 558.065 152.429 C 558.065 154.497 556.416 156.184 554.355 156.224 L 456.043 156.224 C 453.953 156.224 452.26 154.525 452.26 152.429 C 452.26 150.334 453.953 148.635 456.043 148.635 Z M 406.889 182.771 C 406.892 180.676 408.584 178.978 410.673 178.975 L 599.736 178.975 C 600.739 178.975 601.702 179.375 602.411 180.086 C 603.121 180.798 603.519 181.764 603.518 182.771 L 603.518 266.211 C 603.52 267.218 603.122 268.184 602.412 268.896 C 601.702 269.608 600.739 270.008 599.736 270.007 L 410.671 270.007 C 408.582 270.006 406.888 268.307 406.887 266.211 Z M 425.799 338.28 C 415.376 338.28 406.895 329.773 406.895 319.311 C 406.895 308.85 415.376 300.349 425.799 300.349 C 436.223 300.349 444.704 308.85 444.704 319.311 C 444.699 329.773 436.218 338.28 425.799 338.28 Z M 467.387 334.485 C 467.387 336.576 465.7 338.28 463.609 338.28 C 461.518 338.28 459.833 336.576 459.833 334.485 L 459.833 296.559 C 459.833 294.466 461.524 292.77 463.61 292.77 C 465.696 292.77 467.387 294.466 467.387 296.559 Z M 490.076 334.485 C 490.075 336.58 488.382 338.279 486.292 338.28 C 484.206 338.274 482.518 336.577 482.515 334.485 L 482.515 296.559 C 482.515 294.464 484.208 292.766 486.296 292.766 C 488.385 292.766 490.077 294.464 490.077 296.559 Z M 512.765 334.485 C 512.764 336.58 511.07 338.279 508.981 338.28 C 506.893 338.276 505.202 336.579 505.198 334.485 L 505.198 296.559 C 505.198 294.463 506.892 292.764 508.982 292.764 C 511.071 292.764 512.765 294.463 512.765 296.559 Z M 535.448 334.485 C 535.447 336.58 533.753 338.279 531.664 338.28 C 529.576 338.276 527.884 336.579 527.881 334.485 L 527.881 296.559 C 527.881 294.463 529.575 292.764 531.664 292.764 C 533.754 292.764 535.448 294.463 535.448 296.559 Z M 558.141 334.485 C 558.141 336.578 556.45 338.277 554.363 338.28 C 552.274 338.278 550.581 336.58 550.58 334.485 L 550.58 296.559 C 550.553 295.187 551.268 293.907 552.449 293.213 C 553.629 292.519 555.092 292.519 556.272 293.213 C 557.453 293.907 558.167 295.187 558.141 296.559 Z M 592.166 338.28 C 581.743 338.28 573.262 329.773 573.262 319.311 C 573.262 308.85 581.748 300.349 592.166 300.349 C 602.596 300.349 611.077 308.85 611.077 319.311 C 611.077 329.773 602.596 338.28 592.166 338.28 Z M 448.481 391.377 L 645.106 391.377 L 645.106 368.619 L 365.3 368.619 L 365.3 391.377 Z" fill="#000000"></path></svg>