<svg xmlns="http://www.w3.org/2000/svg" width="35" height="35"><path d="M 17.245 18.25 C 17.245 18.739 17.439 19.208 17.786 19.554 C 18.132 19.9 18.602 20.095 19.092 20.095 C 19.581 20.095 20.051 19.9 20.397 19.554 L 24.512 15.443 L 24.512 15.819 C 24.512 16.478 24.864 17.087 25.435 17.417 C 26.007 17.746 26.71 17.746 27.282 17.417 C 27.853 17.087 28.205 16.478 28.205 15.819 L 28.205 10.989 C 28.205 10.499 28.01 10.03 27.664 9.685 C 27.318 9.339 26.848 9.144 26.359 9.143 L 21.524 9.143 C 20.504 9.143 19.678 9.97 19.678 10.988 C 19.678 12.007 20.504 12.833 21.524 12.833 L 21.901 12.833 L 17.786 16.945 C 17.438 17.29 17.243 17.76 17.245 18.25 Z" fill="#46b583"></path><path d="M 32.178 31.712 C 32.729 30.391 32.563 28.88 31.739 27.71 L 28.948 23.726 C 28.153 22.591 26.845 21.923 25.457 21.945 C 24.07 21.967 22.784 22.675 22.025 23.835 L 20.24 26.556 C 18.014 26.359 15.903 25.479 14.196 24.038 C 12.489 22.596 11.27 20.663 10.706 18.502 L 10.706 18.458 C 10.313 16.671 10.258 14.826 10.542 13.019 L 13.894 12.233 L 13.894 12.233 C 15.245 11.917 16.351 10.951 16.846 9.656 C 17.341 8.361 17.161 6.905 16.365 5.77 L 13.574 1.791 L 13.574 1.79 C 12.756 0.617 11.394 -0.056 9.965 0.006 C 8.535 0.067 7.236 0.856 6.523 2.095 C 5.49 3.871 4.593 5.721 3.838 7.631 C 1.386 13.911 2.269 19.931 6.54 26.022 C 10.098 31.099 16.964 34.851 22.627 34.851 L 22.916 34.851 L 22.916 34.852 C 24.97 34.796 27.018 34.585 29.042 34.223 C 30.45 33.98 31.634 33.031 32.178 31.711 Z" fill="#46b583"></path></svg>