<?xml version="1.0" standalone="no"?>
<!DOCTYPE svg PUBLIC "-//W3C//DTD SVG 20010904//EN"
 "http://www.w3.org/TR/2001/REC-SVG-20010904/DTD/svg10.dtd">
<svg version="1.0" xmlns="http://www.w3.org/2000/svg"
 width="640.000000pt" height="1280.000000pt" viewBox="0 0 640.000000 1280.000000"
 preserveAspectRatio="xMidYMid meet">
<metadata>
Created by potrace 1.16, written by Peter Selinger 2001-2019
</metadata>
<g transform="translate(0.000000,1280.000000) scale(0.100000,-0.100000)"
fill="#000000" stroke="none">
<path d="M2995 12609 c-251 -13 -557 -54 -612 -82 -31 -17 -57 -43 -66 -69 -8
-22 -10 -22 83 -2 172 36 372 60 593 70 135 6 146 8 118 20 -53 22 -40 40 44
60 58 14 54 14 -160 3z"/>
<path d="M3255 12606 c79 -19 97 -38 53 -55 -20 -7 -17 -10 22 -15 25 -3 90
-8 145 -12 108 -6 389 -44 524 -69 46 -9 85 -14 88 -11 12 12 -12 49 -47 71
-60 38 -319 79 -555 89 -77 4 -171 8 -210 11 l-70 4 50 -13z"/>
<path d="M2860 11769 c-41 -4 -129 -12 -195 -18 -410 -37 -461 -43 -471 -54
-12 -13 -34 -135 -34 -190 0 -19 6 -37 13 -39 11 -4 134 6 512 41 61 6 169 16
242 22 110 10 132 15 136 29 5 21 -10 197 -18 210 -7 11 -76 11 -185 -1z"/>
</g>
</svg>
