<?xml version="1.0" encoding="UTF-8"?>
<svg width="700px" height="700px" viewBox="0 0 700 700" xmlns="http://www.w3.org/2000/svg" xmlns:xlink="http://www.w3.org/1999/xlink" version="1.1">
 <!-- Generated by Pixelmator Pro 2.3 -->
 <g id="group">
  <path id="Path" d="M255.862 94.125 L161.765 94.125 C143.814 94.086 126.582 101.201 113.887 113.896 101.192 126.59 94.078 143.822 94.116 161.774 L94.116 255.871 C94.077 273.822 101.192 291.054 113.887 303.749 126.582 316.444 143.813 323.559 161.765 323.52 L255.835 323.52 C273.792 323.559 291.018 316.444 303.713 303.749 316.408 291.055 323.522 273.823 323.484 255.871 L323.484 161.774 C323.523 143.823 316.414 126.602 303.725 113.907 291.036 101.212 273.81 94.092 255.864 94.125 Z M282.334 255.876 C282.334 262.895 279.544 269.631 274.583 274.596 269.617 279.557 262.882 282.347 255.863 282.347 L161.765 282.347 C154.745 282.347 148.01 279.557 143.044 274.596 138.084 269.63 135.294 262.895 135.294 255.876 L135.294 161.778 C135.294 154.758 138.084 148.023 143.044 143.057 148.011 138.096 154.746 135.306 161.765 135.306 L255.836 135.306 C262.861 135.306 269.591 138.096 274.556 143.057 279.523 148.024 282.313 154.759 282.313 161.778 Z" fill="#000000" fill-opacity="1" stroke="none"/>
  <path id="Path-1" d="M255.862 376.456 L161.765 376.456 C143.814 376.417 126.582 383.532 113.887 396.227 101.192 408.922 94.078 426.153 94.116 444.105 L94.116 538.175 C94.077 556.132 101.192 573.358 113.887 586.059 126.582 598.754 143.813 605.863 161.765 605.824 L255.835 605.824 C273.792 605.863 291.018 598.754 303.713 586.059 316.408 573.359 323.522 556.133 323.484 538.175 L323.484 444.105 C323.523 426.16 316.414 408.934 303.725 396.238 291.036 383.544 273.81 376.423 255.864 376.456 Z M282.334 538.207 C282.334 545.227 279.544 551.962 274.583 556.927 269.617 561.888 262.882 564.678 255.863 564.678 L161.765 564.678 C154.745 564.678 148.01 561.888 143.044 556.927 138.084 551.961 135.294 545.226 135.294 538.207 L135.294 444.109 C135.294 437.089 138.084 430.354 143.044 425.389 148.011 420.428 154.746 417.638 161.765 417.638 L255.836 417.638 C262.861 417.638 269.591 420.428 274.556 425.389 279.523 430.355 282.313 437.09 282.313 444.109 Z" fill="#000000" fill-opacity="1" stroke="none"/>
  <path id="Path-2" d="M444.112 323.516 L538.21 323.516 C556.16 323.555 573.392 316.44 586.088 303.745 598.782 291.05 605.897 273.819 605.858 255.867 L605.858 161.769 C605.897 143.819 598.783 126.587 586.088 113.891 573.393 101.197 556.162 94.082 538.21 94.121 L444.112 94.121 C426.161 94.082 408.929 101.196 396.234 113.891 383.539 126.586 376.425 143.817 376.463 161.769 L376.463 255.867 C376.424 273.818 383.539 291.05 396.234 303.745 408.929 316.44 426.16 323.554 444.112 323.516 Z M417.64 161.765 C417.64 154.745 420.43 148.01 425.391 143.044 430.357 138.084 437.093 135.294 444.112 135.294 L538.209 135.294 C545.229 135.294 551.964 138.084 556.93 143.044 561.891 148.011 564.681 154.746 564.681 161.765 L564.681 255.863 C564.681 262.883 561.891 269.618 556.93 274.583 551.964 279.544 545.228 282.334 538.209 282.334 L444.112 282.334 C437.092 282.334 430.357 279.544 425.391 274.583 420.43 269.617 417.64 262.882 417.64 255.863 Z" fill="#000000" fill-opacity="1" stroke="none"/>
  <path id="Path-3" d="M20.601 276.446 C26.064 276.446 31.303 274.275 35.164 270.414 39.026 266.547 41.196 261.307 41.196 255.845 L41.196 114.729 C41.185 95.221 48.925 76.51 62.713 62.717 76.507 48.923 95.211 41.172 114.719 41.183 L255.863 41.183 C263.045 40.932 269.579 36.954 273.1 30.687 276.627 24.421 276.627 16.77 273.1 10.504 269.579 4.237 263.044 0.258 255.863 0.007 L114.719 0.007 C84.29 0.002 55.107 12.083 33.59 33.6 12.072 55.118 -0.009 84.301 -0.003 114.73 L-0.003 255.874 C0.002 261.331 2.179 266.566 6.04 270.422 9.901 274.283 15.136 276.449 20.598 276.449 Z" fill="#000000" fill-opacity="1" stroke="none"/>
  <path id="Path-4" d="M255.862 658.802 L114.718 658.802 C95.205 658.819 76.494 651.073 62.695 637.28 48.901 623.48 41.155 604.77 41.173 585.256 L41.173 444.112 C40.922 436.931 36.943 430.396 30.676 426.876 24.41 423.349 16.759 423.349 10.493 426.876 4.226 430.397 0.248 436.931 -0.003 444.112 L-0.003 585.256 C-0.009 615.685 12.072 644.868 33.59 666.386 55.107 687.904 84.29 699.984 114.719 699.979 L255.863 699.979 C263.045 699.728 269.579 695.749 273.1 689.483 276.626 683.216 276.626 675.566 273.1 669.299 269.579 663.033 263.044 659.054 255.863 658.803 Z" fill="#000000" fill-opacity="1" stroke="none"/>
  <path id="Path-5" d="M679.374 423.526 C673.911 423.526 668.671 425.696 664.81 429.558 660.949 433.425 658.778 438.665 658.778 444.127 L658.778 585.272 C658.789 604.779 651.044 623.496 637.25 637.29 623.457 651.083 604.74 658.829 585.232 658.817 L444.111 658.817 C438.525 658.622 433.101 660.703 429.083 664.587 425.065 668.465 422.794 673.817 422.794 679.402 422.794 684.994 425.065 690.339 429.083 694.223 433.101 698.101 438.525 700.183 444.111 699.987 L585.255 699.987 C615.69 699.999 644.873 687.906 666.39 666.389 687.907 644.867 699.989 615.677 699.978 585.242 L699.978 444.098 C699.972 438.641 697.796 433.406 693.934 429.55 690.073 425.689 684.839 423.523 679.376 423.523 Z" fill="#000000" fill-opacity="1" stroke="none"/>
  <path id="Path-6" d="M585.249 0 L444.105 0 C436.923 0.251 430.389 4.23 426.868 10.497 423.342 16.763 423.342 24.413 426.868 30.68 430.389 36.946 436.924 40.925 444.105 41.176 L585.249 41.176 C604.762 41.16 623.473 48.905 637.273 62.698 651.067 76.498 658.812 95.208 658.795 114.722 L658.795 255.866 C658.605 261.452 660.686 266.876 664.564 270.894 668.448 274.912 673.794 277.183 679.385 277.183 684.971 277.183 690.317 274.912 694.2 270.894 698.084 266.876 700.166 261.452 699.97 255.866 L699.97 114.722 C699.976 84.293 687.895 55.11 666.377 33.592 644.86 12.075 615.677 -0.006 585.248 -0.001 Z" fill="#000000" fill-opacity="1" stroke="none"/>
  <path id="Path-7" d="M444.112 428.011 L585.256 428.011 C590.842 428.207 596.266 426.125 600.284 422.241 604.307 418.363 606.573 413.012 606.573 407.426 606.573 401.835 604.307 396.489 600.284 392.606 596.266 388.727 590.842 386.646 585.256 386.841 L444.112 386.841 C426.183 386.797 408.979 393.894 396.29 406.556 383.595 419.217 376.463 436.409 376.463 454.338 L376.463 585.159 376.463 585.153 C376.268 590.739 378.355 596.163 382.233 600.181 386.117 604.204 391.463 606.47 397.054 606.47 402.64 606.47 407.985 604.204 411.869 600.181 415.753 596.164 417.834 590.74 417.639 585.153 L417.639 454.461 C417.639 447.442 420.429 440.718 425.395 435.756 430.362 430.801 437.097 428.022 444.112 428.039 Z" fill="#000000" fill-opacity="1" stroke="none"/>
  <path id="Path-8" d="M470.582 491.18 L470.582 585.278 C470.387 590.864 472.468 596.282 476.347 600.306 480.23 604.323 485.576 606.594 491.167 606.594 496.753 606.594 502.104 604.323 505.983 600.306 509.866 596.283 511.948 590.864 511.752 585.278 L511.752 491.18 C511.501 483.999 507.523 477.464 501.256 473.938 494.99 470.417 487.339 470.417 481.073 473.938 474.806 477.465 470.828 483.999 470.582 491.18 Z" fill="#000000" fill-opacity="1" stroke="none"/>
  <path id="Path-9" d="M542.079 491.18 L542.079 585.278 C541.884 590.864 543.971 596.282 547.849 600.306 551.733 604.323 557.079 606.594 562.67 606.594 568.256 606.594 573.602 604.323 577.485 600.306 581.369 596.283 583.45 590.864 583.255 585.278 L583.255 491.18 C583.45 485.594 581.369 480.171 577.485 476.152 573.601 472.134 568.256 469.864 562.67 469.864 557.079 469.864 551.733 472.135 547.849 476.152 543.971 480.17 541.884 485.594 542.079 491.18 Z" fill="#000000" fill-opacity="1" stroke="none"/>
 </g>
</svg>
