<?xml version="1.0" encoding="UTF-8"?>
<svg width="700px" height="700px" viewBox="0 0 700 700" xmlns="http://www.w3.org/2000/svg" xmlns:xlink="http://www.w3.org/1999/xlink" version="1.1">
 <!-- Generated by Pixelmator Pro 2.3 -->
 <g id="group">
  <path id="Path" d="M348.668 512.615 L336.65 502.045 C331.331 497.377 206.574 386.178 206.574 253.888 206.574 175.46 270.38 111.657 348.805 111.657 427.23 111.657 491.036 175.462 491.036 253.888 491.036 388.7 366.124 497.616 360.813 502.177 Z M348.797 148.503 C290.679 148.503 243.398 195.777 243.398 253.901 243.398 347.18 318.904 432.57 348.891 462.799 378.888 432.973 454.18 348.663 454.18 253.901 454.197 195.775 406.905 148.503 348.797 148.503 Z" fill="#000000" fill-opacity="1" stroke="none"/>
  <path id="Path-1" d="M690.283 462.269 L639.368 374.145 C611.805 329.458 571.46 323.737 539.399 323.737 529.223 323.737 520.983 331.977 520.983 342.153 520.983 352.329 529.223 360.569 539.399 360.569 569.216 360.569 591.092 366.068 607.735 393.033 L657.981 479.982 C665.741 494.903 664.833 515.022 655.711 530.03 649.543 540.197 636.935 552.309 611.905 552.309 L88.465 552.326 C63.436 552.326 50.837 540.206 44.659 530.038 35.546 515.031 34.638 494.919 41.996 480.709 L92.371 393.502 C109.279 366.092 131.172 360.584 160.99 360.584 171.165 360.584 179.405 352.344 179.405 342.168 179.405 331.992 171.165 323.752 160.99 323.752 128.929 323.752 88.584 329.483 60.755 374.623 L9.713 463.012 C-3.974 489.343 -2.612 523.16 13.191 549.182 28.849 574.982 55.591 589.191 88.474 589.191 L611.914 589.191 C644.797 589.191 671.532 574.981 687.197 549.199 702.992 523.142 704.354 489.325 690.272 462.266 Z" fill="#000000" fill-opacity="1" stroke="none"/>
  <path id="Path-2" d="M348.778 303.182 C319.072 303.182 294.892 279.017 294.892 249.314 294.892 219.608 319.057 195.428 348.778 195.428 378.483 195.428 402.646 219.593 402.646 249.314 402.654 279.002 378.481 303.182 348.778 303.182 Z M348.778 232.267 C339.381 232.267 331.732 239.916 331.732 249.313 331.732 258.709 339.381 266.341 348.778 266.341 358.174 266.341 365.806 258.7 365.806 249.313 365.815 239.916 358.174 232.267 348.778 232.267 Z" fill="#000000" fill-opacity="1" stroke="none"/>
 </g>
</svg>
