<?xml version="1.0" encoding="UTF-8"?>
<svg width="700px" height="700px" viewBox="0 0 700 700" xmlns="http://www.w3.org/2000/svg" xmlns:xlink="http://www.w3.org/1999/xlink" version="1.1">
 <!-- Generated by Pixelmator Pro 2.3 -->
 <g id="group">
  <path id="Path" d="M687.171 625.274 L599.675 537.779 C592.815 530.924 583.87 526.544 574.251 525.328 564.628 524.108 554.872 526.124 546.523 531.051 L455.634 440.166 C502.125 389.627 526.958 322.882 524.81 254.251 522.663 185.62 493.708 120.558 444.151 73.023 394.593 25.491 328.38 -0.728 259.723 -0.011 191.059 0.702 125.404 28.298 76.857 76.855 28.299 125.408 0.703 191.058 -0.009 259.721 -0.727 328.385 25.492 394.601 73.025 444.149 120.556 493.706 185.616 522.66 254.253 524.808 322.889 526.957 389.633 502.125 440.168 455.632 L531.052 546.521 C526.126 554.87 524.109 564.625 525.33 574.25 526.546 583.868 530.926 592.814 537.781 599.673 L625.276 687.169 C636.335 698.228 652.452 702.544 667.554 698.501 682.661 694.454 694.461 682.652 698.51 667.545 702.553 652.444 698.236 636.326 687.177 625.268 Z M92.364 432.622 C48.221 387.301 23.705 326.421 24.12 263.155 24.535 199.892 49.851 139.338 94.59 94.601 139.324 49.862 199.877 24.546 263.144 24.131 326.412 23.716 387.292 48.231 432.61 92.375 476.753 137.695 501.269 198.576 500.854 261.842 500.439 325.105 475.123 385.659 430.384 430.395 385.65 475.134 325.097 500.451 261.83 500.866 198.562 501.281 137.681 476.766 92.364 432.622 Z M671.696 671.697 L671.696 671.702 C667.522 675.676 661.98 677.898 656.219 677.898 650.457 677.898 644.915 675.676 640.741 671.702 L553.245 584.206 C547.718 578.674 545.56 570.618 547.581 563.065 549.608 555.511 555.506 549.613 563.059 547.587 570.613 545.565 578.668 547.724 584.201 553.251 L671.696 640.746 C675.802 644.852 678.112 650.418 678.112 656.224 678.112 662.03 675.802 667.596 671.696 671.702 Z M404.673 180.472 C404.673 174.432 399.775 169.535 393.736 169.535 387.696 169.535 382.799 174.432 382.799 180.472 382.779 192.342 378.702 203.845 371.242 213.078 363.781 222.311 353.386 228.712 341.786 231.222 L341.786 218.752 C341.776 211.003 339.027 203.509 334.022 197.59 329.018 191.678 322.085 187.723 314.443 186.434 314.497 185.36 314.497 184.28 314.443 183.206 314.424 173.651 311.778 164.286 306.793 156.138 301.803 147.984 294.669 141.364 286.174 136.999 289.186 126.008 295.729 116.311 304.786 109.398 313.844 102.484 324.922 98.734 336.319 98.72 342.358 98.72 347.255 93.822 347.255 87.783 347.255 81.743 342.358 76.846 336.319 76.846 320.118 76.919 304.386 82.309 291.541 92.186 278.7 102.068 269.457 115.886 265.228 131.53 L262.494 131.257 259.926 131.257 C255.698 115.613 246.45 101.796 233.609 91.913 220.768 82.035 205.036 76.645 188.836 76.572 182.791 76.572 177.899 81.469 177.899 87.509 177.899 93.549 182.791 98.446 188.836 98.446 200.266 98.475 211.368 102.264 220.43 109.232 229.497 116.199 236.016 125.96 238.979 136.999 230.45 141.344 223.282 147.955 218.268 156.104 213.249 164.258 210.578 173.637 210.544 183.208 210.49 184.282 210.49 185.361 210.544 186.435 202.903 187.724 195.97 191.679 190.965 197.592 185.96 203.51 183.211 211.004 183.202 218.753 L183.202 231.223 C171.601 228.714 161.205 222.313 153.746 213.079 146.285 203.846 142.208 192.343 142.189 180.473 142.189 174.434 137.291 169.536 131.252 169.536 125.212 169.536 120.315 174.434 120.315 180.473 120.344 198.139 126.701 215.208 138.244 228.581 149.781 241.954 165.732 250.752 183.203 253.37 L183.203 286.893 131.253 286.888 C125.213 286.888 120.316 291.785 120.316 297.825 120.316 303.865 125.213 308.762 131.253 308.762 L183.203 308.762 183.203 331.783 C165.732 334.4 149.782 343.199 138.244 356.572 126.701 369.945 120.345 387.014 120.315 404.68 120.315 410.719 125.212 415.617 131.252 415.617 137.291 415.617 142.189 410.719 142.189 404.68 142.208 392.81 146.285 381.307 153.746 372.074 161.206 362.841 171.601 356.44 183.202 353.93 L183.202 358.197 C183.216 379.221 191.575 399.381 206.443 414.249 221.311 429.117 241.47 437.476 262.495 437.491 283.519 437.476 303.679 429.117 318.547 414.249 333.415 399.382 341.773 379.222 341.788 358.197 L341.788 353.93 C353.389 356.439 363.785 362.84 371.244 372.074 378.705 381.307 382.782 392.81 382.801 404.68 382.801 410.719 387.699 415.617 393.738 415.617 399.778 415.617 404.675 410.719 404.675 404.68 404.646 387.014 398.289 369.945 386.746 356.572 375.209 343.199 359.258 334.401 341.787 331.783 L341.787 308.982 393.737 308.982 C399.777 308.982 404.674 304.085 404.674 298.045 404.674 292.005 399.777 287.108 393.737 287.108 L341.787 287.108 341.787 253.37 C359.258 250.753 375.208 241.954 386.746 228.581 398.289 215.208 404.645 198.139 404.675 180.474 Z M262.492 153.13 C270.466 153.144 278.107 156.318 283.746 161.953 289.381 167.592 292.555 175.233 292.569 183.206 L292.569 185.941 232.636 185.941 232.636 183.206 C232.651 175.272 235.79 167.665 241.381 162.031 246.971 156.402 254.559 153.204 262.493 153.13 Z M205.073 358.194 L205.073 218.751 C205.073 212.712 209.97 207.814 216.01 207.814 L251.555 207.814 251.555 414.529 C238.475 411.99 226.688 404.983 218.207 394.706 209.726 384.433 205.083 371.529 205.073 358.204 Z M319.911 358.194 C319.901 371.518 315.258 384.423 306.776 394.696 298.295 404.974 286.509 411.98 273.428 414.519 L273.428 207.804 308.974 207.804 C311.874 207.804 314.657 208.957 316.708 211.007 318.758 213.058 319.911 215.841 319.911 218.741 Z" fill="#000000" fill-opacity="1" stroke="none"/>
 </g>
</svg>
