<?xml version="1.0" encoding="UTF-8"?>
<svg width="700px" height="700px" viewBox="0 0 700 700" xmlns="http://www.w3.org/2000/svg" xmlns:xlink="http://www.w3.org/1999/xlink" version="1.1">
 <!-- Generated by Pixelmator Pro 2.3 -->
 <g id="group">
  <path id="Path" d="M52.286 450.426 L52.286 189.77 488.681 189.77 488.681 303.481 C503.448 302.003 517.479 302.003 532.246 303.481 L532.246 118.881 C532.246 82.698 502.712 53.9 467.265 53.9 L420.007 53.9 420.007 19.195 C420.007 8.858 411.148 -0.002 400.81 -0.002 L352.817 -0.002 C342.479 -0.002 333.62 8.857 333.62 19.195 L333.62 53.9 207.345 53.9 207.345 19.195 C207.345 8.858 198.486 -0.002 188.148 -0.002 L140.154 -0.002 C129.817 -0.002 120.957 8.857 120.957 19.195 L120.957 53.9 73.7 53.9 C37.517 53.9 8.719 83.433 8.719 118.881 L8.719 450.423 C8.719 486.606 38.252 515.404 73.7 515.404 L287.836 515.404 C288.573 500.637 290.051 486.606 293.744 471.839 L74.439 471.834 C62.628 472.571 52.291 462.975 52.291 450.423 Z" fill="#000000" fill-opacity="1" stroke="none"/>
  <path id="Path-1" d="M364.63 243.673 C356.507 243.673 349.863 250.318 349.863 258.44 L349.863 297.575 C349.863 305.698 356.508 312.342 364.63 312.342 L419.273 312.342 C427.396 312.342 434.04 305.697 434.04 297.575 L434.04 258.44 C434.04 250.317 427.395 243.673 419.273 243.673 Z" fill="#000000" fill-opacity="1" stroke="none"/>
  <path id="Path-2" d="M298.174 243.673 L243.531 243.673 C235.408 243.673 228.764 250.318 228.764 258.44 L228.764 297.575 C228.764 305.698 235.408 312.342 243.531 312.342 L298.174 312.342 C306.296 312.342 312.94 305.697 312.94 297.575 L312.94 258.44 C312.204 250.317 306.296 243.673 298.174 243.673 Z" fill="#000000" fill-opacity="1" stroke="none"/>
  <path id="Path-3" d="M298.174 350.741 L243.531 350.741 C235.408 350.741 228.764 357.386 228.764 365.508 L228.764 404.643 C228.764 412.766 235.408 419.41 243.531 419.41 L298.174 419.41 C306.296 419.41 312.94 412.766 312.94 404.643 L312.946 365.508 C312.204 357.385 306.296 350.741 298.174 350.741 Z" fill="#000000" fill-opacity="1" stroke="none"/>
  <path id="Path-4" d="M191.106 257.703 C191.106 249.58 184.461 242.936 176.339 242.936 L121.696 242.936 C113.573 242.936 106.929 249.581 106.929 257.703 L106.929 296.838 C106.929 304.961 113.573 311.605 121.696 311.605 L176.339 311.605 C184.461 311.605 191.106 304.96 191.106 296.838 Z" fill="#000000" fill-opacity="1" stroke="none"/>
  <path id="Path-5" d="M177.076 350.741 L122.433 350.741 C114.31 350.741 107.666 357.386 107.666 365.508 L107.666 404.643 C107.666 412.766 114.311 419.41 122.433 419.41 L177.076 419.41 C185.199 419.41 191.843 412.766 191.843 404.643 L191.848 365.508 C191.106 357.385 185.198 350.741 177.076 350.741 Z" fill="#000000" fill-opacity="1" stroke="none"/>
  <path id="Path-6" d="M507.88 426.058 C496.064 426.058 486.469 435.659 486.469 447.469 L486.469 523.525 C486.469 532.384 491.64 539.77 499.757 543.463 L545.537 563.401 C548.488 564.879 551.445 564.879 554.396 564.879 562.519 564.879 570.641 559.708 574.334 551.591 578.764 540.517 574.334 527.959 563.26 522.793 L530.769 508.762 530.769 446.738 C530.028 435.654 519.69 426.057 507.88 426.057 Z" fill="#000000" fill-opacity="1" stroke="none"/>
  <path id="Path-7" d="M583.935 467.409 L676.973 486.606 C681.402 487.343 685.095 486.606 688.046 482.913 690.998 479.962 691.739 475.527 690.998 471.839 L671.801 378.802 C671.064 374.372 666.629 370.679 663.678 369.201 659.248 367.723 654.077 369.201 651.126 372.152 L629.715 393.563 C596.488 362.55 554.396 345.57 508.617 345.57 461.359 345.57 416.317 364.03 383.09 397.257 313.679 466.668 313.679 578.903 383.09 648.313 416.317 681.54 461.359 700 508.617 700 555.875 700 600.917 681.54 634.144 648.313 660.726 621.731 677.708 589.24 683.617 552.32 685.832 540.504 677.709 529.431 665.894 527.215 654.078 525 643.005 533.123 640.789 544.938 636.36 572.258 623.067 597.367 603.132 617.3 550.703 669.729 465.79 669.729 413.363 617.3 360.934 564.871 360.934 479.958 413.363 427.531 464.314 376.58 545.537 375.102 598.702 423.101 L577.291 444.513 C574.34 447.464 572.861 452.635 574.34 457.065 575.818 462.983 579.511 466.676 583.94 467.412 Z" fill="#000000" fill-opacity="1" stroke="none"/>
 </g>
</svg>
