<?xml version="1.0" encoding="UTF-8"?>
<svg width="700px" height="700px" viewBox="0 0 700 700" xmlns="http://www.w3.org/2000/svg" xmlns:xlink="http://www.w3.org/1999/xlink" version="1.1">
 <!-- Generated by Pixelmator Pro 2.3 -->
 <g id="group">
  <path id="Path" d="M349.355 58.277 C342.409 58.277 334.481 58.277 327.535 59.267 318.61 60.256 309.685 67.202 307.7 81.087 L304.725 99.934 C299.764 132.664 276.954 157.46 252.158 170.358 248.193 172.344 244.222 174.322 241.247 176.308 217.441 191.183 184.709 199.118 153.964 186.229 L136.114 179.283 C124.214 174.322 112.308 178.294 107.354 186.229 99.419 198.129 91.483 211.025 85.534 223.921 81.57 231.856 83.548 243.756 94.459 251.692 L109.334 263.592 C135.12 284.424 145.04 316.159 144.051 343.929 L144.051 357.822 C145.041 386.581 135.126 418.324 109.334 438.159 L94.459 450.059 C84.538 457.994 82.559 469.894 85.534 477.83 91.484 490.726 99.419 503.616 107.354 515.522 112.315 522.468 123.225 526.432 136.114 522.468 L153.964 515.522 C184.709 503.622 217.441 510.561 241.247 525.443 245.211 527.429 248.193 529.407 252.158 531.393 276.954 545.278 299.764 569.084 304.725 601.817 L307.7 620.664 C309.686 633.56 318.611 641.496 327.535 642.484 334.481 643.473 342.41 643.473 349.355 643.473 356.301 643.473 364.23 643.473 371.176 642.484 380.101 641.495 389.025 634.548 391.011 620.664 L393.986 601.817 C398.947 569.086 421.757 544.29 446.553 531.393 450.518 529.407 454.489 527.429 457.464 525.443 481.27 510.568 514.002 502.632 544.747 515.522 L562.597 522.468 C574.497 527.429 586.403 523.457 591.357 515.522 599.292 503.622 607.228 490.726 613.177 477.83 617.141 469.894 615.163 457.995 604.252 450.059 L589.377 438.159 C563.591 417.327 553.671 385.591 554.66 357.822 L554.66 343.929 C553.67 315.169 563.585 283.427 589.377 263.592 L604.252 251.692 C614.173 243.756 616.152 231.857 613.177 223.921 607.227 211.025 599.292 198.135 591.357 186.229 586.396 179.283 575.486 175.318 562.597 179.283 L544.747 186.229 C514.002 198.129 481.27 191.19 457.464 176.308 453.5 174.322 450.518 172.344 446.553 170.358 421.757 156.473 398.947 132.666 393.986 99.934 L391.011 81.087 C389.025 68.191 380.1 60.255 371.176 59.267 364.23 58.277 356.301 58.277 349.355 58.277 Z M323.569 0.751 C332.494 -0.239 340.43 -0.239 349.355 -0.239 358.281 -0.239 367.205 -0.239 375.141 0.751 415.809 3.726 443.58 36.457 448.539 72.163 L451.514 91.01 C452.504 100.931 460.439 111.842 473.335 118.781 478.295 121.756 483.256 123.742 487.22 126.717 500.116 134.652 513.006 135.642 521.938 131.677 L539.787 124.731 C573.508 111.835 615.165 118.781 637.981 152.503 647.902 166.388 656.828 182.26 663.767 198.131 681.617 234.827 666.742 274.504 638.971 297.315 L624.097 309.214 C616.161 315.164 611.201 327.064 611.201 341.945 L611.201 349.881 611.201 357.816 C611.201 372.691 616.161 384.598 624.097 390.547 L638.971 402.447 C667.731 424.267 681.617 464.934 663.767 501.631 655.832 517.502 646.907 532.376 637.981 547.259 615.171 580.979 573.515 587.926 539.787 575.03 L521.938 568.084 C512.017 564.12 500.117 565.109 487.22 573.045 482.259 576.02 478.295 578.995 473.335 580.98 460.439 587.926 452.503 598.83 451.514 608.752 L448.539 627.598 C443.579 663.305 415.809 696.037 375.141 699.011 366.217 700 358.281 700 349.355 700 340.43 700 331.506 700 323.569 699.011 282.902 696.036 255.131 663.305 250.172 627.598 L247.197 608.752 C246.207 598.83 238.272 587.919 225.376 580.98 220.416 578.005 215.455 576.02 211.491 573.045 198.595 565.109 185.705 564.12 176.773 568.084 L158.923 575.03 C125.203 587.926 83.546 580.98 60.73 547.259 50.809 533.373 41.883 517.502 34.944 501.631 17.094 464.934 31.969 425.257 59.74 402.447 L74.614 390.547 C82.55 384.597 87.51 372.697 87.51 357.816 L87.51 349.881 87.51 341.945 C87.51 327.07 82.55 315.164 74.614 309.214 L59.74 297.315 C30.98 275.494 17.094 234.827 34.944 198.131 42.879 182.26 51.804 167.385 60.73 152.503 83.54 118.782 125.196 111.836 158.923 124.731 L176.773 131.677 C186.694 135.642 198.593 134.652 211.491 126.717 216.452 123.742 220.416 120.767 225.376 118.781 238.272 111.835 246.208 100.932 247.197 91.01 L250.172 72.163 C255.132 36.457 282.902 3.725 323.569 0.751 Z M349.355 263.588 C300.754 263.588 262.072 303.258 262.072 350.871 262.072 398.478 301.742 438.155 349.355 438.155 397.957 438.155 436.639 398.485 436.639 350.871 436.639 303.265 397.957 263.588 349.355 263.588 Z M203.555 350.871 C203.555 270.534 269.018 205.071 349.355 205.071 429.693 205.071 495.156 270.534 495.156 350.871 495.156 431.208 429.693 496.671 349.355 496.671 268.021 496.671 203.555 431.208 203.555 350.871 Z" fill="#000000" fill-opacity="1" stroke="none"/>
 </g>
</svg>
