<?xml version="1.0" encoding="UTF-8"?>
<svg width="700px" height="700px" viewBox="0 0 700 700" xmlns="http://www.w3.org/2000/svg" xmlns:xlink="http://www.w3.org/1999/xlink" version="1.1">
 <!-- Generated by Pixelmator Pro 2.3 -->
 <g id="group">
  <path id="Path" d="M449.332 187.631 C456.27 187.631 462.933 184.875 467.842 179.961 472.751 175.053 475.512 168.395 475.512 161.451 L475.512 26.18 C475.512 19.236 472.751 12.578 467.842 7.669 462.933 2.755 456.271 -0.001 449.332 -0.001 L45.18 -0.001 C41.105 0.071 37.106 1.114 33.516 3.047 33.138 3.22 32.744 3.139 32.397 3.323 31.737 3.691 31.456 4.427 30.827 4.847 28.209 6.606 25.939 8.835 24.134 11.422 23.433 12.312 22.804 13.248 22.242 14.224 20.196 17.885 19.082 21.991 19 26.179 L19 525.39 C19.072 529.455 20.11 533.438 22.027 537.022 22.584 537.989 23.208 538.914 23.893 539.799 25.519 542.223 27.554 544.35 29.901 546.083 30.505 546.533 30.781 547.28 31.425 547.653 L272.057 696.093 C276.025 698.542 280.571 699.887 285.234 699.994 289.897 700.091 294.499 698.951 298.57 696.676 302.645 694.405 306.035 691.087 308.392 687.063 310.75 683.044 311.992 678.462 311.992 673.799 L311.992 551.566 449.345 551.566 C456.283 551.566 462.947 548.81 467.855 543.901 472.764 538.993 475.525 532.33 475.525 525.386 L475.525 392.169 C475.525 385.226 472.764 378.562 467.855 373.654 462.947 368.745 456.284 365.989 449.345 365.989 442.401 365.989 435.738 368.745 430.829 373.654 425.92 378.562 423.164 385.225 423.164 392.169 L423.164 499.201 311.997 499.201 311.997 174.609 C311.997 170.146 310.851 165.753 308.678 161.852 306.505 157.95 303.371 154.668 299.571 152.316 L137.518 52.352 423.154 52.352 423.154 161.443 C423.154 168.387 425.91 175.045 430.818 179.954 435.727 184.867 442.39 187.624 449.334 187.624 Z M259.619 189.201 L259.619 626.876 71.347 510.77 71.347 73.095 Z" fill="#000000" fill-opacity="1" stroke="none"/>
  <path id="Path-1" d="M662.671 257.244 L575.833 170.4 C570.904 165.593 564.277 162.919 557.394 162.965 550.507 163.006 543.916 165.762 539.047 170.63 534.174 175.498 531.424 182.089 531.378 188.977 531.331 195.864 534.006 202.486 538.812 207.421 L580.997 249.605 392.934 249.605 C385.99 249.605 379.332 252.367 374.424 257.275 369.51 262.184 366.754 268.841 366.754 275.786 366.754 282.73 369.51 289.388 374.424 294.296 379.332 299.21 385.99 301.966 392.934 301.966 L580.997 301.966 538.812 344.151 C536.327 346.575 534.354 349.464 532.998 352.649 531.638 355.84 530.933 359.266 530.907 362.733 530.887 366.199 531.551 369.636 532.871 372.842 534.185 376.048 536.128 378.962 538.577 381.411 541.026 383.861 543.941 385.799 547.147 387.118 550.358 388.432 553.789 389.097 557.256 389.076 560.723 389.056 564.148 388.345 567.334 386.99 570.525 385.63 573.414 383.656 575.832 381.171 L662.671 294.327 662.742 294.266 681.216 275.787 662.742 257.308 Z" fill="#000000" fill-opacity="1" stroke="none"/>
 </g>
</svg>
