<svg xmlns="http://www.w3.org/2000/svg" width="25" height="25"><path d="M 22.308 2.208 L 20.394 2.208 L 20.394 0.798 C 20.394 0.372 20.048 -0 19.596 -0 L 17.627 -0 C 17.202 -0 16.83 0.346 16.83 0.798 L 16.83 2.208 L 11.67 2.208 L 11.67 0.798 C 11.67 0.372 11.324 -0 10.872 -0 L 8.904 -0 C 8.478 -0 8.106 0.346 8.106 0.798 L 8.106 2.208 L 6.191 2.208 C 5.478 2.206 4.794 2.488 4.29 2.992 C 3.785 3.496 3.503 4.181 3.505 4.894 L 3.505 11.517 C 4.064 11.304 4.675 11.171 5.287 11.118 L 5.287 7.793 L 23.186 7.793 L 23.186 18.485 C 23.186 18.964 22.787 19.39 22.282 19.39 L 14.197 19.39 C 14.17 20.001 14.09 20.613 13.931 21.172 L 22.308 21.172 C 23.021 21.174 23.706 20.891 24.21 20.387 C 24.714 19.883 24.997 19.198 24.995 18.485 L 24.995 4.894 C 24.997 4.181 24.714 3.496 24.21 2.992 C 23.706 2.488 23.022 2.206 22.309 2.208 Z" fill="#eb671a"></path><path d="M 6.218 12.82 C 2.787 12.82 -0.005 15.613 -0.005 19.044 C -0.005 22.475 2.787 25.268 6.218 25.268 C 9.649 25.268 12.441 22.475 12.441 19.044 C 12.441 15.613 9.649 12.82 6.218 12.82 Z M 8.771 19.948 L 6.218 19.948 C 5.713 19.948 5.314 19.549 5.314 19.044 L 5.314 16.012 C 5.314 15.507 5.713 15.108 6.218 15.108 C 6.723 15.108 7.122 15.507 7.122 16.012 L 7.122 18.14 L 8.771 18.14 C 9.277 18.14 9.676 18.539 9.676 19.044 C 9.676 19.549 9.25 19.948 8.771 19.948 Z M 18.133 9.256 L 17.335 9.256 C 17.175 9.256 17.069 9.389 17.069 9.522 L 17.069 10.24 C 16.032 10.427 15.314 11.357 15.42 12.421 C 15.527 13.432 16.431 14.23 17.521 14.23 L 18.053 14.23 C 18.239 14.23 18.425 14.31 18.558 14.469 C 18.691 14.629 18.745 14.815 18.745 15.001 C 18.718 15.347 18.399 15.613 18 15.613 L 17.282 15.613 C 17.069 15.613 16.883 15.453 16.856 15.267 C 16.83 15.161 16.723 15.054 16.59 15.054 L 15.792 15.054 C 15.713 15.054 15.633 15.081 15.58 15.134 C 15.526 15.187 15.5 15.267 15.5 15.32 C 15.58 16.145 16.218 16.81 17.042 16.89 L 17.042 17.581 C 17.042 17.741 17.149 17.847 17.308 17.847 L 18.106 17.847 C 18.266 17.847 18.372 17.741 18.372 17.581 L 18.372 16.89 C 19.25 16.703 19.941 15.985 20.021 15.134 C 20.074 14.549 19.888 13.991 19.516 13.565 C 19.144 13.166 18.585 12.9 18.027 12.9 L 17.415 12.9 C 17.229 12.9 17.043 12.82 16.91 12.661 C 16.777 12.528 16.723 12.315 16.723 12.129 C 16.75 11.783 17.069 11.517 17.468 11.517 L 18.186 11.517 C 18.399 11.517 18.585 11.677 18.612 11.863 C 18.638 11.969 18.745 12.076 18.878 12.076 L 19.676 12.076 C 19.755 12.076 19.835 12.049 19.888 11.996 C 19.942 11.943 19.968 11.863 19.942 11.81 C 19.862 10.985 19.224 10.32 18.399 10.24 L 18.399 9.549 C 18.399 9.363 18.266 9.256 18.133 9.256 Z" fill="#eb671a"></path></svg>