<?xml version="1.0" encoding="UTF-8"?>
<svg width="700px" height="700px" viewBox="0 0 700 700" xmlns="http://www.w3.org/2000/svg" xmlns:xlink="http://www.w3.org/1999/xlink" version="1.1">
 <!-- Generated by Pixelmator Pro 2.3 -->
 <g id="group">
  <path id="Path" d="M189.2 63.498 C261.999 22.621 347.618 10.969 428.69 30.902 509.759 50.835 580.214 100.864 625.754 170.839 L540.904 157.793 C535.047 156.913 529.583 160.947 528.708 166.81 527.827 172.667 531.867 178.126 537.724 179.006 L644.423 195.552 646.122 195.552 646.117 195.552 C651.373 195.619 655.884 191.828 656.723 186.639 L672.845 79.623 C673.735 73.859 669.805 68.457 664.041 67.53 658.276 66.639 652.875 70.575 651.953 76.334 L639.861 154.183 C594.665 87.443 527.821 38.342 450.618 15.188 373.412 -7.973 290.583 -3.772 216.113 27.068 141.646 57.914 80.101 113.518 41.892 184.478 3.677 255.449 -8.877 337.434 6.359 416.584 7.338 421.643 11.813 425.268 16.966 425.175 17.634 425.284 18.312 425.284 18.98 425.175 21.756 424.657 24.206 423.062 25.801 420.732 27.391 418.401 27.991 415.537 27.463 412.767 14.175 344.929 22.662 274.633 51.71 211.91 80.758 149.185 128.88 97.241 189.208 63.502 Z" fill="#000000" fill-opacity="1" stroke="none"/>
  <path id="Path-1" d="M693.21 281.245 C692.071 275.388 686.395 271.566 680.538 272.71 674.68 273.849 670.858 279.525 671.998 285.383 686.659 360.077 674.944 437.543 638.858 504.562 602.777 571.581 544.557 624.007 474.13 652.89 403.708 681.773 325.443 685.331 252.684 662.953 179.931 640.57 117.188 593.639 75.174 530.162 L160.025 538.754 C165.882 539.339 171.107 535.067 171.693 529.209 172.278 523.352 168.005 518.127 162.148 517.541 L54.599 506.935 53.537 506.935 C48.11 506.904 43.532 510.975 42.931 516.376 L32.325 623.816 C32.029 626.634 32.874 629.451 34.666 631.642 36.457 633.832 39.052 635.215 41.874 635.484 L42.936 635.484 42.931 635.484 C48.307 635.225 52.636 630.984 53.009 625.619 L60.86 547.237 C93.13 594.349 136.409 632.875 186.94 659.473 237.469 686.066 293.728 699.935 350.833 699.862 420.002 699.697 487.575 679.038 545.008 640.498 602.446 601.963 647.175 547.269 673.552 483.326 699.928 419.383 706.769 349.064 693.205 281.237 Z" fill="#000000" fill-opacity="1" stroke="none"/>
  <path id="Path-2" d="M364.097 549.159 L364.097 498.355 C414.053 490.188 440.677 454.232 440.677 415.945 440.677 372.778 415.436 347.531 365.48 327.169 323.055 309.67 305.344 297.048 305.344 271.91 305.344 252.499 319.452 230.121 356.786 230.121 L356.78 230.121 C378.309 229.997 399.455 235.834 417.87 246.984 L429.963 215.165 C410.775 204.17 389.075 198.329 366.961 198.199 L366.961 150.895 336.835 150.895 336.835 199.897 C292.286 207.215 263.653 237.76 263.653 278.067 263.653 320.492 294.198 342.554 343.625 361.964 379.581 376.496 398.458 392.933 398.458 419.662 398.458 446.39 375.23 467.178 340.76 467.178 L340.76 467.173 C315.937 466.976 291.706 459.612 270.969 445.961 L259.301 478.52 259.306 478.52 C281.611 492.327 307.314 499.671 333.55 499.733 L333.55 548.735 Z" fill="#000000" fill-opacity="1" stroke="none"/>
 </g>
</svg>
