<?xml version="1.0" encoding="UTF-8"?>
<svg width="700px" height="700px" viewBox="0 0 700 700" xmlns="http://www.w3.org/2000/svg" xmlns:xlink="http://www.w3.org/1999/xlink" version="1.1">
 <!-- Generated by Pixelmator Pro 2.3 -->
 <g id="group">
  <path id="Path" d="M23.948 590.006 C141.871 590.062 259.749 590.062 377.728 590.006 380.354 612.355 391.598 631.982 407.994 645.664 L85.486 645.664 C52.871 645.664 29.333 620.961 23.948 590.006 Z M614.226 55.42 C646.846 55.42 670.422 80.111 675.808 111.066 L549.356 111.066 C554.142 79.384 581.094 55.42 614.226 55.42 Z M176.524 55.42 L559.174 55.42 C540.651 70.95 528.546 94.159 528.546 120.101 L528.491 579.962 C528.491 616.409 499.523 645.465 463.122 645.659 L462.983 645.659 462.8 645.659 C426.503 645.659 397.569 616.864 397.158 580.707 397.536 575.399 394.221 569.83 387.069 569.98 L110.871 569.974 110.871 121.114 C110.871 84.579 139.932 55.411 176.524 55.411 Z M176.524 35.386 C129.206 35.386 90.795 73.809 90.795 121.115 L90.795 569.975 9.756 569.975 C2.849 569.975 -0.194 575.267 -0.194 579.959 -0.194 627.277 38.185 665.688 85.491 665.688 L462.811 665.688 C515.514 665.688 547.302 620.546 548.54 579.959 L548.54 131.099 689.961 131.099 C695.491 131.099 700 126.635 700 121.115 700 73.797 661.577 35.386 614.236 35.386 Z" fill="#000000" fill-opacity="1" stroke="none"/>
  <path id="Path-1" d="M617.211 250.923 L646.006 250.923 646.456 612.962 632.325 631.936 617.677 612.54 Z M606.206 230.895 C601.042 231.401 597.177 235.726 597.177 240.846 L597.644 615.919 C597.644 618.057 598.332 620.183 599.67 621.932 L624.268 654.648 C628.327 660.034 636.339 659.989 640.348 654.592 L664.562 622.222 C665.855 620.462 666.549 618.402 666.5 616.225 L666.05 240.839 C666.05 235.309 661.519 230.834 655.994 230.889 L607.171 230.889 C606.843 230.845 606.516 230.845 606.205 230.895 Z" fill="#000000" fill-opacity="1" stroke="none"/>
  <path id="Path-2" d="M609.052 194.592 C595.698 194.592 596.703 214.626 610.107 214.626 L653.605 214.626 C667.453 214.626 667.453 194.592 653.605 194.592 Z" fill="#000000" fill-opacity="1" stroke="none"/>
  <path id="Path-3" d="M204.327 180.548 C182.028 180.548 163.706 198.75 163.706 221.036 L163.706 281.619 C163.706 303.873 182.029 322.014 204.327 322.014 L263.489 322.014 C285.777 322.014 304.155 303.862 304.155 281.619 L304.155 265.212 C304.155 251.819 284.077 251.819 284.077 265.212 L284.077 281.619 C284.077 293.046 275.071 301.986 263.489 301.986 L204.327 301.986 C192.723 301.986 183.789 293.046 183.789 281.619 L183.789 221.036 C183.789 209.576 192.729 200.632 204.327 200.632 L259.713 200.632 C273.123 200.632 273.123 180.548 259.713 180.548 Z" fill="#000000" fill-opacity="1" stroke="none"/>
  <path id="Path-4" d="M310.181 188.835 C307.555 188.88 305.068 189.974 303.241 191.823 L239.204 255.626 219.165 235.715 C215.289 231.478 208.704 231.295 204.65 235.354 200.591 239.407 200.73 245.993 204.978 249.88 L232.146 276.915 C236.044 280.78 242.335 280.78 246.244 276.915 L317.415 206.016 C323.883 199.614 319.214 188.647 310.18 188.836 Z" fill="#000000" fill-opacity="1" stroke="none"/>
  <path id="Path-5" d="M344.964 301.981 C339.295 301.754 334.547 306.307 334.547 312.02 334.547 317.7 339.295 322.237 344.964 322.015 L465.419 322.015 C471.088 322.237 475.835 317.7 475.835 312.02 475.835 306.307 471.088 301.754 465.419 301.981 Z" fill="#000000" fill-opacity="1" stroke="none"/>
  <path id="Path-6" d="M380.286 180.548 C374.723 180.548 370.198 185.057 370.198 190.587 370.198 196.167 374.728 200.637 380.286 200.637 L465.417 200.637 C478.827 200.637 478.827 180.554 465.417 180.554 Z" fill="#000000" fill-opacity="1" stroke="none"/>
  <path id="Path-7" d="M344.964 261.485 C339.295 261.301 334.547 265.821 334.547 271.524 334.547 277.204 339.295 281.757 344.964 281.529 L465.419 281.529 C471.088 281.757 475.835 277.204 475.835 271.524 475.835 265.821 471.088 261.301 465.419 261.485 Z" fill="#000000" fill-opacity="1" stroke="none"/>
  <path id="Path-8" d="M344.964 221.031 C339.295 220.809 334.547 225.356 334.547 231.036 334.547 236.739 339.295 241.303 344.964 241.075 L465.419 241.075 C471.088 241.303 475.835 236.739 475.835 231.036 475.835 225.356 471.088 220.814 465.419 221.031 Z" fill="#000000" fill-opacity="1" stroke="none"/>
  <path id="Path-9" d="M344.964 488.26 C331.566 488.26 331.566 508.343 344.964 508.343 L465.419 508.343 C478.828 508.343 478.828 488.26 465.419 488.26 Z" fill="#000000" fill-opacity="1" stroke="none"/>
  <path id="Path-10" d="M380.286 366.799 C366.877 366.799 366.877 386.92 380.286 386.92 L465.417 386.92 C478.827 386.92 478.827 366.799 465.417 366.799 Z" fill="#000000" fill-opacity="1" stroke="none"/>
  <path id="Path-11" d="M344.964 447.778 C339.384 447.778 334.908 452.308 334.908 457.817 334.908 463.397 339.384 467.905 344.964 467.905 L465.419 467.905 C478.828 467.905 478.828 447.784 465.419 447.784 L344.964 447.784 Z" fill="#000000" fill-opacity="1" stroke="none"/>
  <path id="Path-12" d="M344.964 407.281 C339.384 407.281 334.908 411.79 334.908 417.37 334.908 422.9 339.384 427.409 344.964 427.409 L465.419 427.409 C478.828 427.409 478.828 407.287 465.419 407.287 L344.964 407.293 Z" fill="#000000" fill-opacity="1" stroke="none"/>
  <path id="Path-13" d="M204.327 366.87 C182.028 366.87 163.706 385.065 163.706 407.358 L163.706 467.941 C163.706 490.195 182.029 508.341 204.327 508.341 L263.489 508.341 C285.777 508.341 304.155 490.185 304.155 467.941 L304.155 451.544 C304.155 438.119 284.077 438.119 284.077 451.544 L284.077 467.941 C284.077 479.356 275.071 488.29 263.489 488.29 L204.327 488.29 C192.723 488.29 183.789 479.356 183.789 467.941 L183.789 407.358 C183.789 395.886 192.729 386.953 204.327 386.953 L259.713 386.953 C273.123 386.953 273.123 366.87 259.713 366.87 Z" fill="#000000" fill-opacity="1" stroke="none"/>
  <path id="Path-14" d="M310.181 375.185 C307.555 375.218 305.068 376.323 303.241 378.156 L239.204 441.971 219.165 422.071 C215.289 417.834 208.704 417.651 204.65 421.71 200.591 425.769 200.73 432.332 204.978 436.207 L232.146 463.264 C236.044 467.14 242.335 467.14 246.244 463.264 L317.415 392.364 C323.883 385.957 319.214 374.99 310.18 375.185 Z" fill="#000000" fill-opacity="1" stroke="none"/>
 </g>
</svg>
