<?xml version="1.0" encoding="UTF-8"?>
<!-- Generated by Pixelmator Pro 2.3.8 -->
<svg width="933" height="933" viewBox="0 0 933 933" xmlns="http://www.w3.org/2000/svg" xmlns:xlink="http://www.w3.org/1999/xlink">
    <g id="Group">
        <path id="Path" fill="#000000" stroke="none" d="M 84.896111 445.411926 L 122.196648 445.411926 L 122.196648 569.085083 C 176.183502 554.364685 236.057861 543.56665 299.856628 536.694031 L 299.856628 442.462006 L 295.933472 442.462006 C 282.192169 442.462006 266.485291 434.608734 257.653137 422.832794 C 249.799881 412.035461 245.876663 398.294189 247.834839 385.532288 C 249.799881 371.791016 256.667206 360.013855 267.46405 352.161438 L 310.653839 318.790588 L 266.485962 284.432983 C 260.597748 279.523865 251.765564 279.523865 244.891937 284.432983 L 76.06588 414.00769 C 72.142662 416.951782 70.177643 420.881836 69.191719 425.78418 C 68.212631 430.693268 70.170784 434.616455 73.114914 438.546356 C 76.06588 442.469543 81.954109 445.413696 84.898201 445.413696 Z"/>
        <path id="path1" fill="#000000" stroke="none" d="M 675.787415 422.836334 C 666.955017 434.612762 652.228516 442.465546 635.542175 442.465546 L 633.577271 442.465546 L 633.577271 536.697571 C 697.374268 543.571655 757.250366 554.361816 811.237244 569.088623 L 811.237244 445.410156 L 846.572876 445.410156 C 851.481995 445.410156 857.370239 443.445129 860.314148 438.536011 C 866.202454 430.68277 865.223328 419.884888 857.370117 413.997314 L 806.327881 373.752136 L 806.327881 307.010498 C 806.327881 302.101257 802.404663 298.178101 797.495544 298.178101 L 780.810181 298.178101 C 775.901001 298.178101 771.977783 302.101257 771.977783 307.010498 L 771.977783 346.26886 L 690.509338 283.449829 C 684.621155 278.540649 675.789001 278.540649 668.915344 283.449829 L 629.656982 313.876038 L 629.656982 320.750183 L 667.937256 350.198364 C 688.546326 367.86969 692.475952 400.260742 675.790527 422.834564 Z"/>
        <path id="path2" fill="#000000" stroke="none" d="M 281.205505 389.463745 C 280.22644 394.372864 282.184601 398.296082 285.128723 402.225952 C 288.072815 406.149109 292.981964 409.100098 296.905182 409.100098 L 334.205719 409.100098 L 334.205719 532.773254 C 377.395508 528.850098 421.563416 526.88501 467.696106 526.88501 C 513.828857 526.88501 557.998413 528.850098 601.186462 532.773254 L 601.186462 409.094849 L 636.522217 409.094849 C 641.431274 409.094849 647.31958 406.150696 650.263489 402.220703 C 656.151733 394.367493 655.172668 383.569519 647.319397 377.682007 L 596.277222 338.423645 L 596.277222 271.681885 C 596.277222 266.772827 592.353943 262.849609 587.444885 262.849609 L 570.759399 262.849609 C 565.850342 262.849609 561.927063 266.772827 561.927063 271.681885 L 561.927063 310.940308 L 480.45871 248.121338 C 474.570435 243.212158 465.738281 243.212158 458.864624 248.121338 L 287.093933 377.689026 C 284.149811 380.633179 281.205658 384.556335 281.205658 389.465515 Z"/>
        <path id="path3" fill="#000000" stroke="none" d="M 919.210999 641.721313 C 812.224121 591.664185 649.285645 560.25293 466.717896 560.25293 C 284.150146 560.25293 121.213371 591.665955 14.224727 641.721313 C -11.293745 653.497803 0.483423 691.778503 27.966042 687.854004 C 160.478378 671.168579 308.688507 662.335571 466.717529 662.335571 C 624.746582 662.335571 772.960205 672.153809 905.469116 688.839111 C 932.952393 691.783203 943.74939 653.503418 919.210327 641.719604 Z"/>
    </g>
</svg>
