<?xml version="1.0" encoding="UTF-8"?>
<!-- Generated by Pixelmator Pro 2.3.8 -->
<svg width="933" height="933" viewBox="0 0 933 933" xmlns="http://www.w3.org/2000/svg" xmlns:xlink="http://www.w3.org/1999/xlink">
    <g id="Group">
        <path id="Path" fill="#000000" stroke="none" d="M 480.751221 408.814514 L 262.362091 286.139587 L 262.362091 475.61853 C 262.362091 520.546448 362.373779 570.945923 485.439331 570.945923 C 608.504883 570.945923 708.907166 520.546448 708.907166 475.61853 L 708.914795 280.668152 Z"/>
        <path id="path1" fill="#000000" stroke="none" d="M 207.27652 311.535583 L 195.556183 207.617188 L 480.751221 367.795227 L 804.232605 186.129944 L 480.751221 4.853333 L 157.26973 186.129944 L 143.596008 311.535583 Z"/>
        <path id="path2" fill="#000000" stroke="none" d="M 295.21817 697.056763 C 275.240814 715.980225 265.268768 743.152893 268.267242 770.508179 C 270.014587 785.532471 275.69931 799.83252 284.748993 811.957214 C 270.922638 805.807129 255.731308 803.411133 240.682434 805.005798 C 213.350586 808.12677 189.046463 823.852905 175.007492 847.50769 C 193.511353 867.240845 220.126907 877.265625 247.04657 874.642273 C 273.966248 872.018799 298.147278 857.038879 312.485168 834.109375 C 331.675629 815.048584 340.938202 788.165649 337.558899 761.337769 C 334.179504 734.509888 318.536163 710.762512 295.217194 697.059509 Z"/>
        <path id="path3" fill="#000000" stroke="none" d="M 239.116791 700.963562 C 245.86203 674.288086 239.734863 645.993164 222.551056 624.50592 C 197.188263 635.1427 178.248123 657.025879 171.374161 683.656555 C 167.711563 698.337463 167.978607 713.729004 172.152466 728.271973 C 161.401215 717.627563 148.032013 710.019897 133.397217 706.196655 C 106.72953 699.443787 78.442482 705.563354 56.939579 722.724121 C 67.278862 747.72168 88.629402 766.499634 114.740387 773.565063 C 140.851379 780.623291 168.755524 775.167419 190.281891 758.784912 C 214.470734 747.896301 232.432175 726.630127 239.116653 700.960693 Z"/>
        <path id="path4" fill="#000000" stroke="none" d="M 107.77079 627.750488 C 132.752701 625.087463 155.079971 610.978882 168.210648 589.559692 C 181.335098 568.133057 183.776825 541.830627 174.803345 518.360596 C 149.356522 520.458984 126.349495 534.354004 112.654259 555.902832 C 105.20697 567.821655 101.025551 581.48053 100.537209 595.519531 C 94.074219 583.051453 84.444588 572.49884 72.609589 564.929443 C 50.99334 551.332153 24.263172 548.630737 0.373199 557.627075 C 2.334205 582.653931 15.801865 605.364014 36.831276 619.082703 C 57.861488 632.802185 84.064262 635.991638 107.770615 627.712769 Z"/>
        <path id="path5" fill="#000000" stroke="none" d="M 83.822227 516.563538 C 101.784248 498.296204 110.80246 473.061493 108.483803 447.554169 C 106.171776 422.044861 92.749809 398.848267 71.789345 384.121643 C 53.827347 402.381409 44.809116 427.615845 47.127796 453.131042 C 49.439838 478.64035 62.861763 501.836945 83.822227 516.563538 Z"/>
        <path id="path6" fill="#000000" stroke="none" d="M 692.654968 805.079224 C 677.607788 803.484497 662.408691 805.888062 648.58844 812.03064 C 657.630493 799.905945 663.322815 785.607117 665.07019 770.581604 C 668.069031 743.226318 658.08844 716.054688 638.119263 697.130249 C 614.799622 710.834412 599.158875 734.580627 595.777588 761.408508 C 592.397217 788.244202 601.660583 815.12677 620.851257 834.180115 C 635.188721 857.116821 659.370178 872.087646 686.289856 874.712952 C 713.209595 877.338318 739.824463 867.311401 758.328979 847.57843 C 744.289001 823.924805 719.98584 808.198059 692.653992 805.076538 Z"/>
        <path id="path7" fill="#000000" stroke="none" d="M 496.456451 853.328003 C 485.804382 864.064026 478.16629 877.417236 474.304993 892.044189 C 470.505096 877.386169 462.905182 863.995483 452.276611 853.21283 C 432.796021 833.739807 405.326904 824.515503 378.047729 828.283569 C 374.140961 855.050903 382.87793 882.109314 401.693542 901.535706 C 420.510193 920.96283 447.277893 930.561218 474.152618 927.517761 C 501.019531 930.684387 527.825989 921.199768 546.724976 901.840454 C 565.617981 882.489807 574.461182 855.455261 570.646179 828.672302 C 543.427734 824.849487 515.982544 833.967773 496.456451 853.32605 Z"/>
        <path id="path8" fill="#000000" stroke="none" d="M 799.974243 706.315857 C 785.33905 710.138672 771.970459 717.753906 761.218994 728.391113 C 765.392822 713.847534 765.65979 698.457397 761.997314 683.775635 C 755.122314 657.145142 736.183228 635.26123 710.820374 624.632935 C 693.850342 645.692383 687.616028 673.436401 693.941895 699.730957 C 700.267578 726.033447 718.435486 747.901611 743.128357 758.942139 C 764.654724 775.324646 792.558838 780.788879 818.669861 773.72229 C 844.780884 766.664063 866.13916 747.878906 876.470642 722.881409 C 854.967712 705.697571 826.65918 699.561829 799.975891 706.315674 Z"/>
        <path id="path9" fill="#000000" stroke="none" d="M 860.763733 564.968506 C 848.928955 572.537903 839.299927 583.090698 832.836121 595.558594 C 832.347778 581.518616 828.166443 567.859497 820.719116 555.949707 C 807.022522 534.394043 784.016846 520.499634 758.569946 518.399658 C 749.596558 541.871582 752.038208 568.172058 765.162659 589.598877 C 778.294739 611.017761 800.620728 625.127075 825.6026 627.789551 C 849.310852 636.076233 875.513611 632.88678 896.54187 619.159546 C 917.572083 605.440063 931.038696 582.738464 933 557.703857 C 909.110046 548.699951 882.387512 551.385803 860.763672 564.96814 Z"/>
        <path id="path10" fill="#000000" stroke="none" d="M 886.704834 445.264771 C 886.704834 422.380798 877.708374 400.428589 861.662292 384.121643 C 840.702393 398.84845 827.28656 422.044861 824.967834 447.554169 C 822.648193 473.063477 831.66748 498.297363 849.629395 516.563538 C 872.849365 500.241974 886.683228 473.641663 886.704834 445.264771 Z"/>
    </g>
</svg>
