<svg xmlns="http://www.w3.org/2000/svg" width="25" height="25"><path d="M 4.55 4.102 C 3.7 4.104 2.964 4.696 2.783 5.528 L 20.449 5.528 C 21.346 5.528 22.178 5.994 22.646 6.759 L 25 6.759 L 25 5.912 C 24.999 4.913 24.189 4.104 23.191 4.103 Z M 1.809 6.295 C 0.811 6.296 0.001 7.105 0 8.104 L 0 8.952 L 22.259 8.952 L 22.259 8.104 C 22.258 7.105 21.448 6.296 20.45 6.295 Z M 22.96 7.526 C 23.004 7.716 23.026 7.909 23.026 8.104 L 23.026 9.12 L 25 9.12 L 25 7.526 L 22.96 7.526 Z M 0 9.719 L 0 11.313 L 22.259 11.313 L 22.259 9.719 Z M 23.027 9.888 L 23.027 18.684 L 23.191 18.684 C 24.189 18.683 24.999 17.873 25 16.875 L 25 9.888 Z M 0 12.081 L 0 19.067 C 0.001 20.066 0.811 20.875 1.81 20.876 L 20.45 20.876 C 21.448 20.875 22.258 20.066 22.259 19.067 L 22.259 12.081 Z M 15.863 14.265 C 16.26 14.266 16.652 14.362 17.004 14.545 C 17.36 14.36 17.755 14.264 18.155 14.265 C 19.196 14.265 20.129 14.906 20.5 15.878 C 20.871 16.85 20.604 17.951 19.828 18.644 C 19.052 19.337 17.929 19.48 17.004 19.003 C 15.949 19.548 14.655 19.278 13.906 18.356 C 13.156 17.434 13.156 16.113 13.906 15.191 C 14.398 14.586 15.124 14.262 15.863 14.265 Z M 15.853 15.032 C 14.891 15.032 14.111 15.811 14.111 16.773 C 14.113 17.735 14.892 18.514 15.853 18.515 C 16.815 18.515 17.594 17.736 17.594 16.774 C 17.594 15.812 16.815 15.032 15.853 15.032 Z M 18.206 15.033 C 18.04 15.028 17.874 15.047 17.714 15.09 C 18.579 16.045 18.579 17.501 17.714 18.457 C 17.858 18.495 18.006 18.515 18.156 18.515 C 18.831 18.515 19.446 18.124 19.733 17.512 C 20.019 16.9 19.926 16.178 19.493 15.659 C 19.174 15.276 18.705 15.048 18.207 15.033 Z" fill="#33aaff"></path></svg>